{
.appVersion = "3260";
.formatVersion = 3;
DisplayStrings = (
"@",
"\"BOO\"l",
"#",
"Zero Handles:
7

Angled Handles:
!',12345678;ABDEFGHKLMNPQRSTVWXYZabcdefghijklmnopqrtuvwxyz*#//-“”@&$%

Almost Orthogonal Lines:
H

Bad Path Orientation:
-%

Off-curve as start point:
\"@

",
Spacing,
"%",
"$&",
"&",
"//",
"*",
W,
";",
"”",
"\"",
"7",
" ",
".",
"…",
","
);
customParameters = (
{
name = vendorID;
value = XXXX;
},
{
name = panose;
value = (
0,
0,
0,
0,
0,
0,
0,
0,
0,
0
);
},
{
name = unicodeRanges;
value = (
0,
1,
2,
31
);
},
{
name = codePageRanges;
value = (
"1252",
"1250"
);
},
{
name = fsType;
value = (
);
},
{
name = glyphOrder;
value = (
.notdef,
.null,
controlLF,
controlCR,
space,
exclam,
quotesingle,
comma,
period,
zero,
one,
two,
three,
four,
five,
six,
seven,
eight,
nine,
colon,
semicolon,
question,
A,
B,
C,
D,
E,
F,
G,
H,
I,
J,
K,
L,
M,
N,
O,
P,
Q,
R,
S,
T,
U,
V,
W,
X,
Y,
Z,
a,
b,
c,
d,
e,
f,
g,
h,
i,
j,
k,
l,
m,
n,
o,
p,
q,
r,
s,
t,
u,
v,
w,
x,
y,
z,
nonbreakingspace,
softhyphen
);
}
);
date = "2021-05-04 22:23:32 +0000";
familyName = Ghastly;
fontMaster = (
{
customParameters = (
{
name = typoAscender;
value = 751;
},
{
name = typoDescender;
value = -101;
},
{
name = typoLineGap;
value = 0;
},
{
name = winAscent;
value = 706;
},
{
name = winDescent;
value = 173;
},
{
name = hheaAscender;
value = 751;
},
{
name = hheaDescender;
value = -101;
},
{
name = strikeoutPosition;
value = 258;
},
{
name = strikeoutSize;
value = 49;
}
);
id = m01;
metricValues = (
{
pos = 751;
},
{
pos = 701;
},
{
pos = 473;
},
{
},
{
pos = -101;
},
{
}
);
name = Regular;
}
);
glyphs = (
{
glyphname = exclam;
layers = (
{
layerId = m01;
shapes = (
{
closed = 1;
nodes = (
(93.98,191.32,o),
(45.54,168.18,o),
(24.12,121.89,cs),
(2.7,75.6,o),
(16.4,23.7,o),
(54.73,5.97,cs),
(93.06,-11.78,o),
(141.5,11.36,o),
(162.92,57.65,cs),
(184.34,103.94,o),
(170.64,155.83,o),
(132.31,173.57,cs)
);
},
{
closed = 1;
nodes = (
(330.88,699.42,o),
(252.38,691.58,o),
(228.84,641.86,cs),
(205.28,592.14,o),
(239.31,555.51,o),
(236.7,526.73,cs),
(232.66,482.35,o),
(146.82,367.67,o),
(139.89,312.16,cs),
(134.66,270.3,o),
(145.12,225.81,o),
(207.93,225.81,cs),
(270.74,225.81,o),
(446.02,419.43,o),
(472.18,529.33,cs),
(498.34,639.23,o),
(421.57,680.32,o),
(380.6,688.95,cs)
);
}
);
width = 491;
}
);
note = exclam;
unicode = 33;
},
{
glyphname = quotesingle;
lastChange = "2024-02-12 14:47:16 +0000";
layers = (
{
layerId = m01;
shapes = (
{
closed = 1;
nodes = (
(45.27,467.41,o),
(-17.34,419.88,o),
(34.6,390.55,cs),
(97.09,355.25,o),
(250.92,534.09,o),
(174.23,614.81,cs),
(146.16,644.39,o),
(78.12,642.06,o),
(50.96,606.87,cs),
(5.63,548.14,o),
(46.65,512.18,o),
(45.85,486.12,cs)
);
}
);
width = 133;
}
);
note = quotesingle;
unicode = 39;
},
{
glyphname = comma;
lastChange = "2024-02-24 18:08:38 +0000";
layers = (
{
layerId = m01;
shapes = (
{
closed = 1;
nodes = (
(51,37,o),
(-33,-45,o),
(38,-55,cs),
(164,-71,o),
(297,117,o),
(205,214,cs),
(172,249,o),
(82,252,o),
(58,204,cs),
(26,142,o),
(53,91,o),
(52,60,cs)
);
}
);
width = 277;
}
);
note = comma;
unicode = 44;
},
{
glyphname = period;
lastChange = "2024-02-24 18:06:39 +0000";
layers = (
{
layerId = m01;
shapes = (
{
closed = 1;
nodes = (
(239,92,o),
(232,155,o),
(180,192,cs),
(129,228,o),
(64,202,o),
(30,153,cs),
(-11,94,o),
(16,41,o),
(56,13,cs),
(97,-15,o),
(158,-22,o),
(205,44,cs)
);
}
);
width = 236;
}
);
note = period;
unicode = 46;
},
{
glyphname = zero;
layers = (
{
layerId = m01;
shapes = (
{
closed = 1;
nodes = (
(153.68,638.98,ls),
(100.46,592.8,o),
(185.86,543.52,o),
(159.8,511.96,cs),
(103.27,443.5,o),
(34.34,326.88,o),
(20.04,252.29,cs),
(2.35,159.99,o),
(16.31,43.16,o),
(159.87,5.94,cs),
(305.77,-31.9,o),
(534.55,115.53,o),
(618.28,307.55,cs),
(703.23,502.4,o),
(658.08,624.04,o),
(574.74,667,cs),
(440.34,736.28,o),
(202.58,681.42,o),
(153.67,638.97,cs)
);
},
{
closed = 1;
nodes = (
(554.33,497.14,o),
(565.32,399.41,o),
(520.5,324.82,cs),
(463.4,229.76,o),
(377.02,182.42,o),
(304.86,226.5,cs),
(231.52,271.3,o),
(273.6,396.46,o),
(307.59,443.94,cs),
(352.01,506.01,o),
(428.13,544.71,o),
(495.52,519.3,cs)
);
},
{
closed = 1;
nodes = (
(329.89,384.62,o),
(305.63,312.53,o),
(347.88,286.72,cs),
(389.44,261.33,o),
(439.2,288.59,o),
(472.1,343.35,cs),
(497.91,386.31,o),
(491.58,442.61,o),
(457.72,455.37,cs),
(418.9,470.02,o),
(375.05,447.72,o),
(349.46,411.97,cs)
);
}
);
width = 678;
}
);
note = zero;
unicode = 48;
},
{
glyphname = one;
layers = (
{
layerId = m01;
shapes = (
{
closed = 1;
nodes = (
(218.25,548.75,o),
(263.59,535.42,o),
(304.89,528.64,c),
(276.77,423.68,o),
(217.83,295.75,o),
(156.44,239.21,cs),
(95.07,182.67,o),
(28.02,197.54,o),
(14.99,102.75,cs),
(6.81,43.3,o),
(49.04,3.1,o),
(157.72,3.1,cs),
(266.39,3.1,o),
(410.24,-25.04,o),
(446.13,88.1,cs),
(470.76,165.76,o),
(388.33,164.33,o),
(387.61,207.08,cs),
(386.9,249.82,o),
(524.66,455.79,o),
(541.6,530.45,cs),
(563.35,626.4,o),
(552.24,684.48,o),
(483.3,696.54,cs),
(387.89,713.22,o),
(226.28,668.07,o),
(221.33,594.51,cs)
);
}
);
width = 566;
}
);
note = one;
unicode = 49;
},
{
glyphname = two;
layers = (
{
layerId = m01;
shapes = (
{
closed = 1;
nodes = (
(160.58,548.7,o),
(170.63,479.61,o),
(244.32,465.8,cs),
(320.38,451.56,o),
(453.67,524.06,o),
(440.57,432.13,cs),
(409.82,216.43,o),
(19.22,315.55,o),
(14.06,126.49,cs),
(11.43,30.66,o),
(101.73,-10.25,o),
(160.58,2.17,cs),
(320.2,35.84,o),
(560.93,-70.35,o),
(613.26,118.72,cs),
(656.83,276.15,o),
(368.33,153.08,o),
(283.89,182.09,c),
(382.73,203.91,o),
(588.23,317.87,o),
(635.38,457.89,cs),
(674.89,575.25,o),
(609.07,681.73,o),
(479.01,694.82,cs),
(309.72,711.87,o),
(192.01,688.77,o),
(171.05,595.32,cs)
);
}
);
width = 661;
}
);
note = two;
unicode = 50;
},
{
glyphname = three;
layers = (
{
layerId = m01;
shapes = (
{
closed = 1;
nodes = (
(195.87,590.31,o),
(329.01,549.35,o),
(439.19,553.86,c),
(336.17,524.6,o),
(215.6,487.78,o),
(214.32,427.39,cs),
(213.04,367,o),
(401.6,407.53,o),
(469.96,321.97,cs),
(503.16,280.42,o),
(422.36,223.69,o),
(343.85,223.69,cs),
(234.83,223.69,o),
(231.24,301.3,o),
(140.76,295.88,cs),
(50.29,290.45,o),
(5.77,227.42,o),
(15.25,144.12,cs),
(24.74,60.82,o),
(131.1,0.02,o),
(330.8,0.02,cs),
(522.53,0.02,o),
(629.44,97.78,o),
(641.72,220.63,cs),
(654.55,348.97,o),
(538.89,399.67,o),
(428.01,447.78,c),
(522.93,475.51,o),
(716.41,523.17,o),
(721.56,630.6,cs),
(726.21,727.58,o),
(634.04,682.21,o),
(539.59,682.21,cs),
(443.71,682.17,o),
(275.88,733.52,o),
(235.88,661.92,cs)
);
}
);
width = 736;
}
);
note = three;
unicode = 51;
},
{
glyphname = four;
layers = (
{
layerId = m01;
shapes = (
{
closed = 1;
nodes = (
(43.29,523.27,o),
(44.27,480.2,o),
(48.47,464.44,cs),
(55.37,438.48,o),
(4.18,417.52,o),
(15.69,346.77,cs),
(33.23,238.9,o),
(150.27,242.94,o),
(276.2,242.94,c),
(238.66,159.32,o),
(230.52,51.21,o),
(264.12,16.24,cs),
(295.03,-15.9,o),
(467.7,2.4,o),
(483.22,47.39,cs),
(499.52,94.59,o),
(445.27,92.39,o),
(436.64,109.69,cs),
(428.01,127,o),
(649.11,537.53,o),
(667.81,550.97,cs),
(710.53,581.65,o),
(714.59,608.18,o),
(696.29,644.9,cs),
(684.09,669.36,o),
(610.85,718.34,o),
(521.16,692.86,cs),
(458.08,674.94,o),
(348.65,462.7,o),
(305.51,322.55,c),
(255.48,315.62,o),
(214.07,339.85,o),
(210.63,358.89,cs),
(207.18,377.93,o),
(284.81,473.1,o),
(283.09,511.18,cs),
(281.38,549.22,o),
(181.31,559.6,o),
(72.62,538.85,c)
);
}
);
width = 721;
}
);
note = four;
unicode = 52;
},
{
glyphname = five;
layers = (
{
layerId = m01;
shapes = (
{
closed = 1;
nodes = (
(196.99,658.5,o),
(207.51,612.94,o),
(219.46,589.62,cs),
(233.62,561.95,o),
(138.19,442.29,o),
(180.35,383.47,cs),
(190.22,369.7,o),
(276.83,389.95,o),
(336.42,365.59,cs),
(418.72,331.96,o),
(471.56,250.33,o),
(391.27,204.5,cs),
(301,152.96,o),
(247.51,280.63,o),
(191.8,290.93,cs),
(127.75,302.76,o),
(19.76,249.8,o),
(14.28,190.53,cs),
(8.8,131.26,o),
(86.07,-0.01,o),
(254.89,-0.01,cs),
(448.7,-0.01,o),
(536.73,44.51,o),
(594.58,196.32,cs),
(635.2,302.88,o),
(600.16,398.83,o),
(329.49,433.04,c),
(340.09,458.84,o),
(345.99,492.23,o),
(359.82,513.12,c),
(428.54,485.26,o),
(593.71,479.71,o),
(637.56,499.14,cs),
(681.42,518.57,o),
(749.67,609.23,o),
(700.09,666.04,cs),
(658.06,714.2,o),
(247.99,703.39,o),
(222.5,680.93,cs)
);
}
);
width = 732;
}
);
note = five;
unicode = 53;
},
{
glyphname = six;
layers = (
{
layerId = m01;
shapes = (
{
closed = 1;
nodes = (
(358.81,700,o),
(254.69,688.31,o),
(240.88,654.4,cs),
(227.89,622.53,o),
(272.08,593.27,o),
(297.07,567.3,c),
(201.19,520.24,o),
(37.77,398.6,o),
(0.88,295.02,cs),
(-48.15,157.35,o),
(33.08,28.21,o),
(209.69,4.26,cs),
(413.06,-23.34,o),
(594.17,88.13,o),
(626.44,214.31,cs),
(653.76,321.13,o),
(550.67,429.91,o),
(394.67,438.8,c),
(468.22,486.96,o),
(656.17,506,o),
(656.17,587.55,cs),
(656.17,669.1,o),
(534.62,700,o),
(446.72,700,cs)
);
},
{
closed = 1;
nodes = (
(401.13,363.3,o),
(496.75,306.04,o),
(443.2,248.03,cs),
(373.74,172.76,o),
(281.02,139.02,o),
(236.47,166.67,cs),
(173.66,205.65,o),
(223.8,330.47,o),
(303.56,355.71,cs),
(313.07,358.74,o),
(322.73,360.31,o),
(332.53,360.68,cs)
);
}
);
width = 670;
}
);
note = six;
unicode = 54;
},
{
glyphname = seven;
lastChange = "2024-02-24 17:38:29 +0000";
layers = (
{
layerId = m01;
shapes = (
{
closed = 1;
nodes = (
(33,510,o),
(330.51,504.93,o),
(330.51,504.93,c),
(330.51,504.93,o),
(58.68,268.42,o),
(27.29,190.16,cs),
(-15.66,83.09,o),
(53.03,11.06,o),
(125.93,2.1,cs),
(198.84,-6.86,o),
(323.23,11.06,o),
(357.53,87.17,cs),
(391.85,163.3,o),
(352.7,195.39,o),
(293.78,194.24,c),
(373.8,284.75,o),
(617.19,489.29,o),
(632.02,552.83,cs),
(648.52,623.51,o),
(602.13,699.99,o),
(431.19,699.99,cs),
(260.26,700,o),
(81,693,o),
(59,610,cs)
);
}
);
width = 553;
}
);
note = seven;
unicode = 55;
},
{
glyphname = eight;
layers = (
{
layerId = m01;
shapes = (
{
closed = 1;
nodes = (
(330.55,700,o),
(267.32,684.81,o),
(217.69,592.39,cs),
(180.52,523.18,o),
(211.29,448.82,o),
(282.55,399.91,c),
(249.04,396.53,o),
(48.35,344,o),
(19.7,225.42,cs),
(-8.95,106.84,o),
(70.01,-1.87,o),
(267.45,0.02,cs),
(446.65,1.73,o),
(525.45,74.54,o),
(553.14,150.59,cs),
(580.83,226.65,o),
(564.92,299.73,o),
(506.78,374.33,c),
(600.83,410.45,o),
(664.25,447.92,o),
(687.07,522.08,cs),
(709.87,596.25,o),
(650.02,700,o),
(477,700,cs)
);
},
{
closed = 1;
nodes = (
(424.22,596.25,o),
(470.4,602.35,o),
(493.59,588.09,cs),
(528.96,566.32,o),
(535.28,522.31,o),
(515.36,487.43,cs),
(488.15,439.83,o),
(429.66,412.62,o),
(389.55,432.41,cs),
(348.04,452.89,o),
(349.74,521.75,o),
(394.29,566.32,cs)
);
},
{
closed = 1;
nodes = (
(318.84,307.94,o),
(359.88,320.85,o),
(380.69,307.87,cs),
(404.12,293.26,o),
(405.21,249.44,o),
(385.8,215.77,cs),
(361.75,174.05,o),
(308.94,107.76,o),
(256.91,132.4,cs),
(205.21,156.9,o),
(250,241.2,o),
(297.72,287.47,cs)
);
}
);
width = 706;
}
);
note = eight;
unicode = 56;
},
{
glyphname = nine;
layers = (
{
layerId = m01;
shapes = (
{
closed = 1;
nodes = (
(541.25,675.24,ls),
(355.01,758.38,o),
(140.1,625.59,o),
(110.4,445.08,cs),
(86.44,299.46,o),
(219.83,210.4,o),
(357.85,210.4,c),
(262.6,39.65,o),
(60.75,215.04,o),
(23.06,145.19,cs),
(-14.64,75.35,o),
(66.93,-0.01,o),
(238.17,-0.01,cs),
(419.68,-0.01,o),
(569.08,106.01,o),
(658.07,259.74,cs),
(747.06,413.48,o),
(721.51,594.76,o),
(541.26,675.23,cs)
);
},
{
closed = 1;
nodes = (
(450.03,314.16,o),
(391.37,272.88,o),
(348.69,295.04,cs),
(320.03,309.92,o),
(313.74,388.44,o),
(349.48,449.41,cs),
(381.21,503.56,o),
(423.12,535.14,o),
(461.27,524.38,cs),
(505.79,511.8,o),
(506.53,445.21,o),
(481.97,388.26,cs)
);
}
);
width = 734;
}
);
note = nine;
unicode = 57;
},
{
glyphname = colon;
lastChange = "2024-02-12 14:45:43 +0000";
layers = (
{
layerId = m01;
shapes = (
{
closed = 1;
nodes = (
(215,191,o),
(185,256,o),
(145,274,cs),
(105,292,o),
(40,281,o),
(18,233,cs),
(-14,164,o),
(18,119,o),
(58,101,cs),
(98,83,o),
(164,82,o),
(193,144,cs)
);
},
{
closed = 1;
nodes = (
(214,523,o),
(145,509,o),
(124,461,cs),
(94,393,o),
(134,350,o),
(173,331,cs),
(213,313,o),
(276,321,o),
(304,385,cs),
(326,434,o),
(293,486,o),
(253,504,cs)
);
}
);
width = 316;
}
);
note = colon;
unicode = 58;
},
{
glyphname = semicolon;
lastChange = "2024-02-12 14:45:51 +0000";
layers = (
{
layerId = m01;
shapes = (
{
closed = 1;
nodes = (
(-2,224,o),
(39,188,o),
(38,162,cs),
(38,144,o),
(-25,96,o),
(27,67,cs),
(90,31,o),
(312,210,o),
(167,291,cs),
(136,308,o),
(71,318,o),
(44,283,cs)
);
},
{
closed = 1;
nodes = (
(300,480,o),
(270,522,o),
(231,539,cs),
(193,557,o),
(132,556,o),
(105,496,cs),
(77,434,o),
(116,390,o),
(154,372,cs),
(192,355,o),
(253,366,o),
(277,424,cs)
);
}
);
width = 293;
}
);
note = semicolon;
unicode = 59;
},
{
glyphname = question;
layers = (
{
layerId = m01;
shapes = (
{
closed = 1;
nodes = (
(184.34,103.93,o),
(170.63,155.84,o),
(132.3,173.57,cs),
(93.97,191.31,o),
(45.53,168.17,o),
(24.11,121.88,cs),
(2.69,75.6,o),
(16.4,23.69,o),
(54.73,5.96,cs),
(93.06,-11.78,o),
(141.5,11.36,o),
(162.92,57.65,cs)
);
},
{
closed = 1;
nodes = (
(366.43,704.47,o),
(240.9,702,o),
(159.49,663.03,cs),
(110.79,639.72,o),
(77.41,591.09,o),
(99.69,554.27,cs),
(132.59,499.88,o),
(255.84,580.17,o),
(282.81,515.42,cs),
(315.48,436.93,o),
(167.94,464.11,o),
(114.44,349.68,cs),
(68.43,251.28,o),
(160.22,164.02,o),
(195.19,191.71,cs),
(231.15,220.2,o),
(199.86,297.88,o),
(297.08,341.91,cs),
(386.66,382.48,o),
(486.06,388.53,o),
(527.89,502.47,cs),
(569.72,616.43,o),
(460.57,681.93,o),
(420.49,691.52,cs)
);
}
);
width = 551;
}
);
note = question;
unicode = 63;
},
{
glyphname = A;
kernRight = A;
layers = (
{
layerId = m01;
shapes = (
{
closed = 1;
nodes = (
(409.35,701.57,ls),
(308.02,703.74,o),
(219.14,677.37,o),
(197.49,654.95,cs),
(159.01,615.12,o),
(217.25,594.24,o),
(190.74,538.51,cs),
(164.23,482.77,o),
(-46.88,279.35,o),
(-46.88,116.51,c),
(-51.54,26.19,o),
(0.21,5.38,o),
(52.84,2.18,cs),
(149.91,-3.75,o),
(136.54,33.54,o),
(203.88,131.42,cs),
(244.15,189.92,o),
(328.99,252.24,o),
(354,220.04,cs),
(379.95,186.6,o),
(280.1,123.54,o),
(282.72,76.24,c),
(278.57,32.03,o),
(301.11,1.55,o),
(366.81,0.03,cs),
(522.61,-3.52,o),
(729.59,494.32,o),
(666.38,596.54,cs),
(622.35,667.73,o),
(510.7,699.41,o),
(409.36,701.58,cs)
);
},
{
closed = 1;
nodes = (
(411.36,480.18,o),
(470.75,499.99,o),
(497.21,469.4,cs),
(525.75,436.4,o),
(509.06,385.84,o),
(466.67,354.76,cs),
(424.28,323.68,o),
(328.7,293.21,o),
(309.54,320.58,cs),
(290.38,347.97,o),
(337.17,424.69,o),
(378.16,455.35,cs)
);
}
);
width = 679;
}
);
note = A;
unicode = (65,192,193,194,195,196,197);
},
{
glyphname = B;
kernLeft = B;
kernRight = B;
layers = (
{
layerId = m01;
shapes = (
{
closed = 1;
nodes = (
(324.5,700,o),
(194.69,697.9,o),
(161.28,642.64,cs),
(132.97,595.81,o),
(188.34,570.71,o),
(156.28,508.12,cs),
(124.22,445.52,o),
(-13.03,249.24,o),
(-9.27,179.64,cs),
(-4.02,82.41,o),
(40.4,0,o),
(206.52,0,cs),
(427.09,0,o),
(538.04,130.08,o),
(574.3,232.94,cs),
(600.39,306.97,o),
(556.78,340.36,o),
(501.17,375.2,c),
(532.13,388.47,o),
(618.44,435.17,o),
(636.45,538.67,cs),
(654.46,642.15,o),
(518.57,700,o),
(421.55,700,cs)
);
},
{
closed = 1;
nodes = (
(450.55,561.21,o),
(502.82,518.77,o),
(467.75,465.71,cs),
(432.68,412.65,o),
(326.28,385.37,o),
(303.51,416.39,cs),
(280.74,447.42,o),
(364.52,545.54,o),
(407.53,553.36,cs)
);
},
{
closed = 1;
nodes = (
(374.84,335.72,o),
(421.88,273.5,o),
(377.01,229.56,cs),
(332.14,185.62,o),
(240.89,171.32,o),
(215.89,203.19,cs),
(190.87,235.04,o),
(280.64,326.11,o),
(327.73,330.92,cs)
);
}
);
width = 653;
}
);
note = B;
unicode = 66;
},
{
glyphname = C;
kernRight = C;
layers = (
{
layerId = m01;
shapes = (
{
closed = 1;
nodes = (
(2.98,153.95,o),
(78.18,0,o),
(262.31,0,cs),
(412.59,0,o),
(534.53,55.21,o),
(534.53,126.77,cs),
(534.53,259.3,o),
(219.72,167.74,o),
(280.25,338.14,cs),
(360.09,562.85,o),
(598.87,450.31,o),
(647.45,569.26,cs),
(687.98,668.48,o),
(527.02,700,o),
(420.62,700,cs),
(307.5,700,o),
(208.61,693.79,o),
(188.08,657.04,cs),
(167.55,620.29,o),
(202.8,585.94,o),
(194.41,548.19,cs),
(182.6,495.04,o),
(46.77,384.91,o),
(23.35,261.4,cs)
);
}
);
width = 664;
}
);
note = C;
unicode = (67,199);
},
{
glyphname = D;
kernLeft = B;
kernRight = D;
layers = (
{
layerId = m01;
shapes = (
{
closed = 1;
nodes = (
(219.84,603.01,o),
(263.52,584.43,o),
(257.3,536.88,cs),
(250.68,486.16,o),
(154.22,264.75,o),
(68.65,179.18,cs),
(-9.84,100.67,o),
(-6.71,0,o),
(198.19,0,cs),
(504.34,0,o),
(744.19,281.23,o),
(744.19,470.68,cs),
(744.19,650.06,o),
(623.18,700,o),
(476.61,700,cs),
(327.6,700,o),
(250.4,692.69,o),
(230.79,635.16,cs)
);
},
{
closed = 1;
nodes = (
(444.71,446.49,o),
(497.61,459.72,o),
(523.16,444.79,cs),
(551.49,428.24,o),
(555.26,364.06,o),
(515.25,307.59,cs),
(477.77,254.67,o),
(369.37,186.75,o),
(332.04,210.81,cs),
(294.78,234.84,o),
(380.73,373.37,o),
(413.84,411.2,cs)
);
}
);
width = 707;
}
);
note = D;
unicode = 68;
},
{
glyphname = E;
kernLeft = E;
kernRight = E;
layers = (
{
layerId = m01;
shapes = (
{
closed = 1;
nodes = (
(139.35,606.31,o),
(178.31,606.25,o),
(178.31,567.74,cs),
(178.31,529.22,o),
(33.06,364.46,o),
(-2.69,230.91,cs),
(-30.33,127.63,o),
(3.34,0,o),
(136.1,0,cs),
(299.62,0,o),
(422.47,45.83,o),
(492.01,108.55,cs),
(531.44,144.11,o),
(541.43,194.48,o),
(526.1,216.27,cs),
(500.2,253.07,o),
(456.58,247.63,o),
(428.73,238.28,cs),
(387.38,224.4,o),
(222.53,134.96,o),
(203.68,198.19,cs),
(167.63,319.18,o),
(432.58,298.31,o),
(437.8,371.19,cs),
(441.77,426.79,o),
(330.56,428.79,o),
(274.96,402.97,c),
(294.82,442.7,o),
(317.96,478.01,o),
(374.57,499.73,cs),
(444.78,526.66,o),
(542.85,498.17,o),
(592.9,529.85,cs),
(642.95,561.52,o),
(666.4,646.57,o),
(590.57,671.93,cs),
(493.17,704.46,o),
(205.05,718.57,o),
(170.19,659,cs)
);
}
);
width = 632;
}
);
note = E;
unicode = (69,200,201,202,203);
},
{
glyphname = F;
kernLeft = F;
kernRight = F;
layers = (
{
layerId = m01;
shapes = (
{
closed = 1;
nodes = (
(153.63,579.2,o),
(237.61,581.49,o),
(200.74,542.54,cs),
(135.65,473.78,o),
(-7.3,257.67,o),
(-14.97,168.53,cs),
(-23.35,71.3,o),
(32.63,-0.77,o),
(109.54,0.02,cs),
(218.52,1.15,o),
(263.44,156.28,o),
(313.05,197.17,cs),
(402.74,271.09,o),
(504.48,250.27,o),
(516.42,303.61,cs),
(528.35,356.95,o),
(454.56,406.33,o),
(336.82,355.25,c),
(347.14,398.21,o),
(370.12,441.07,o),
(419.24,477.07,cs),
(472.88,516.36,o),
(627.26,469.21,o),
(670.33,575.59,cs),
(708.03,668.69,o),
(511.52,700.04,o),
(422.86,700.04,cs),
(334.19,700,o),
(200.74,689.22,o),
(177.18,634.22,cs)
);
}
);
width = 567;
}
);
note = F;
unicode = 70;
},
{
glyphname = G;
kernLeft = F;
kernRight = G;
layers = (
{
layerId = m01;
shapes = (
{
closed = 1;
nodes = (
(199.64,637.47,ls),
(173.22,591.67,o),
(198.84,584.15,o),
(194.92,560.42,cs),
(187.71,516.69,o),
(34.46,363.44,o),
(-5.77,242.76,cs),
(-41.28,136.24,o),
(28.71,2.12,o),
(120.77,2.12,cs),
(231.76,2.12,o),
(294.25,153.2,o),
(381.17,164.22,c),
(319.88,72.27,o),
(349.22,0,o),
(415.09,0,cs),
(522.96,0,o),
(523.31,88.73,o),
(564.93,160.02,cs),
(602.68,224.7,o),
(684.53,285.76,o),
(622.05,350.74,cs),
(574.59,400.11,o),
(388.86,394.09,o),
(377.36,346.21,cs),
(370.5,317.65,o),
(389.7,313.73,o),
(385.03,286.83,cs),
(377.37,242.76,o),
(272.68,223.53,o),
(246.1,261.51,cs),
(209.1,314.34,o),
(274.82,476.55,o),
(433.61,502.94,cs),
(568.87,525.43,o),
(562.81,470.3,o),
(629.45,482.68,cs),
(696.09,495.05,o),
(739.75,607.07,o),
(697.98,652.64,cs),
(638.9,717.11,o),
(246.83,719.26,o),
(199.65,637.49,cs)
);
}
);
width = 701;
}
);
note = G;
unicode = 71;
},
{
glyphname = H;
kernRight = H;
layers = (
{
layerId = m01;
shapes = (
{
closed = 1;
nodes = (
(846.55,639.31,ls),
(817.57,703.48,o),
(623.42,739.73,o),
(585.87,636.93,cs),
(574.41,605.57,o),
(598.87,584.88,o),
(596.96,542.95,cs),
(596.38,530.37,o),
(571.64,485.99,o),
(539.47,430.14,cs),
(509.07,377.33,o),
(452.91,344.5,o),
(391.98,344.01,cs),
(390.53,343.99,ls),
(373.33,343.85,o),
(362.76,362.8,o),
(371.93,377.34,cs),
(440.43,486.03,o),
(514.49,591.23,o),
(492.79,639.28,cs),
(463.83,703.47,o),
(239.83,739.71,o),
(202.27,636.92,cs),
(190.81,605.56,o),
(215.27,584.87,o),
(213.37,542.94,cs),
(211.71,506.58,o),
(7.67,204.09,o),
(7.67,127.37,cs),
(7.67,50.67,o),
(63.67,0,o),
(137.4,0,cs),
(196.9,0,o),
(287.59,30.07,o),
(271.33,127.37,cs),
(269.02,141.18,o),
(269.69,156.33,o),
(272.71,172.52,cs),
(282.07,222.64,o),
(324.34,259.85,o),
(375.17,263.92,cs),
(375.66,263.96,o),
(376.17,264.01,o),
(376.66,264.04,cs),
(407.81,266.65,o),
(429.93,234.47,o),
(416.82,206.06,cs),
(401.26,172.34,o),
(391.27,144.32,o),
(391.27,127.36,cs),
(391.27,50.66,o),
(447.29,-0.01,o),
(521,-0.01,cs),
(580.5,-0.01,o),
(641.31,30.06,o),
(625.07,127.36,cs),
(601.53,268.39,o),
(886.52,550.77,o),
(846.55,639.29,cs)
);
}
);
width = 770;
}
);
note = H;
unicode = 72;
},
{
glyphname = I;
kernLeft = E;
kernRight = I;
layers = (
{
layerId = m01;
shapes = (
{
closed = 1;
nodes = (
(133.05,592.8,o),
(183.63,580.07,o),
(195.19,538.37,cs),
(201.74,514.8,o),
(-18.64,204.07,o),
(-18.64,127.37,cs),
(-18.64,50.66,o),
(37.36,0,o),
(111.09,0,cs),
(170.59,0,o),
(304.34,30.07,o),
(288.1,127.37,cs),
(264.55,268.42,o),
(555.71,550.78,o),
(515.74,639.29,cs),
(486.76,703.47,o),
(272.7,736.4,o),
(175.96,636.91,cs)
);
}
);
width = 515;
}
);
note = I;
unicode = (73,204,205,206,207);
},
{
glyphname = J;
kernRight = J;
lastChange = "2024-02-24 17:46:53 +0000";
layers = (
{
layerId = m01;
shapes = (
{
closed = 1;
nodes = (
(259.4,595.19,o),
(315.91,567.75,o),
(325.95,538.84,cs),
(343.63,487.99,o),
(201.89,190.2,o),
(132.73,177.87,cs),
(59.46,164.78,o),
(3.02,273.05,o),
(-39.96,245.91,cs),
(-89.68,214.52,o),
(-79.21,143.87,o),
(-26.87,81.06,cs),
(8.46,38.66,o),
(59.48,0,o),
(171.77,0,cs),
(293.75,0,o),
(355.22,40.18,o),
(433.64,140.61,cs),
(512.06,241.04,o),
(608.52,495.09,o),
(633.77,520.15,cs),
(659.02,545.21,o),
(724.98,569.41,o),
(724.98,623.38,cs),
(724.98,677.35,o),
(604.81,700,o),
(525.9,700,cs),
(446.99,700,o),
(314.83,692.07,o),
(287.11,643.63,cs)
);
}
);
width = 665;
}
);
note = J;
unicode = 74;
},
{
glyphname = K;
kernLeft = F;
kernRight = K;
lastChange = "2024-02-24 17:44:26 +0000";
layers = (
{
layerId = m01;
shapes = (
{
closed = 1;
nodes = (
(726.13,653.8,o),
(581.11,549.01,o),
(464.77,427.89,c),
(513.98,499.17,o),
(557.31,569.61,o),
(557.31,611.54,cs),
(557.29,687,o),
(444.1,700,o),
(379.26,700,cs),
(314.42,700,o),
(206.52,696.26,o),
(173.14,633.55,cs),
(154.38,598.32,o),
(213.37,579.81,o),
(213.37,537.86,cs),
(213.37,495.91,o),
(28.41,321.47,o),
(-3.39,210.87,cs),
(-35.21,100.27,o),
(24.87,2.02,o),
(97.29,2.02,cs),
(226.53,2.02,o),
(267.99,119.8,o),
(302.13,178.16,cs),
(331.57,229.45,l),
(334.84,85.23,o),
(415.41,-0.01,o),
(541.12,-0.01,cs),
(652.72,-0.01,o),
(721.28,90.31,o),
(711.12,147.71,cs),
(688.65,274.66,o),
(511.23,198.37,o),
(524.99,293.85,cs),
(542.47,415.18,o),
(782.96,459.72,o),
(847.66,532.45,cs),
(892.04,582.34,o),
(858.42,653.8,o),
(793.9,653.8,cs)
);
}
);
width = 848;
}
);
note = K;
unicode = 75;
},
{
glyphname = L;
kernLeft = E;
kernRight = L;
layers = (
{
layerId = m01;
shapes = (
{
closed = 1;
nodes = (
(209.24,529.48,o),
(32.66,293.02,o),
(4.93,198.85,cs),
(-22.81,104.69,o),
(-3.6,0,o),
(98.78,0,cs),
(211.53,0,o),
(453.98,65,o),
(456.25,150.47,cs),
(457.6,201.29,o),
(354.72,221.92,o),
(290.4,215.48,c),
(361.14,303.21,o),
(494.89,510.95,o),
(509.05,572.57,cs),
(533.62,679.61,o),
(422.2,699.93,o),
(371.04,699.93,cs),
(319.89,699.93,o),
(93.9,708.65,o),
(194.12,552.97,cs)
);
}
);
width = 562;
}
);
note = L;
unicode = 76;
},
{
glyphname = M;
kernLeft = M;
kernRight = M;
layers = (
{
layerId = m01;
shapes = (
{
closed = 1;
nodes = (
(150.4,594.82,o),
(171.18,585.69,o),
(176.08,534.9,cs),
(180.98,484.12,o),
(46.18,291.89,o),
(14.71,188.47,cs),
(-16.76,85.04,o),
(30.48,-0.01,o),
(128.95,-0.01,cs),
(248.49,-0.01,o),
(330.13,391.55,o),
(385.76,391.55,cs),
(441.39,391.55,o),
(363.78,201.9,o),
(418.82,201.9,cs),
(468.89,201.9,o),
(599.26,413.35,o),
(642.89,381.63,cs),
(677.07,356.78,o),
(508.93,172.91,o),
(500.88,79.23,cs),
(495.68,18.71,o),
(531.16,0.67,o),
(570.43,0.67,cs),
(666.47,0.67,o),
(736.24,198.16,o),
(793.22,302.83,cs),
(836.53,382.4,o),
(986.89,593.59,o),
(956.71,645.73,cs),
(936.87,680.01,o),
(888.25,702.83,o),
(846.09,689.66,cs),
(776.67,667.98,o),
(616.7,537.51,o),
(498.12,399.77,c),
(519.28,499.14,o),
(586.53,603.12,o),
(534.43,657.39,cs),
(495.7,697.78,o),
(207.6,738.43,o),
(168.15,639.38,cs)
);
}
);
width = 892;
}
);
note = M;
unicode = 77;
},
{
glyphname = N;
kernLeft = E;
kernRight = N;
layers = (
{
layerId = m01;
shapes = (
{
closed = 1;
nodes = (
(157.71,576.92,ls),
(173.51,513.41,o),
(100.08,439.09,o),
(51.29,338.45,cs),
(-54.15,120.91,o),
(-28.42,0.61,o),
(90.98,0.61,cs),
(183.52,0.61,o),
(275.83,350.23,o),
(320.3,353.43,cs),
(364.77,356.63,o),
(260.8,43.64,o),
(421.75,2.97,cs),
(591.71,-39.99,o),
(687.52,396.13,o),
(745.83,486.78,cs),
(804.14,577.43,o),
(891.34,654.33,o),
(825.05,686.11,cs),
(768.8,713.06,o),
(670.26,623.48,o),
(620.95,550.05,cs),
(538.77,427.67,o),
(515.25,246.3,o),
(472.44,264.13,cs),
(412.34,289.16,o),
(536.37,594.83,o),
(494.49,655.71,cs),
(445.16,727.37,o),
(117.01,740.43,o),
(157.7,576.93,cs)
);
}
);
width = 808;
}
);
note = N;
unicode = (78,209);
},
{
glyphname = O;
kernLeft = O;
kernRight = O;
layers = (
{
layerId = m01;
shapes = (
{
closed = 1;
nodes = (
(276,692.25,ls),
(153.73,660.33,o),
(200.68,583.35,o),
(180.97,538.95,cs),
(149.68,468.44,o),
(48.58,428.7,o),
(-7.44,256.36,cs),
(-41.43,151.69,o),
(36.01,0,o),
(207.99,0,cs),
(428.46,0,o),
(509.92,92.68,o),
(590.77,265.53,cs),
(665.81,425.95,o),
(625.61,568.02,o),
(532.02,641.33,cs),
(488.29,675.58,o),
(360.76,714.38,o),
(275.99,692.26,cs)
);
},
{
closed = 1;
nodes = (
(493.08,445.49,o),
(482.42,370.01,o),
(445.27,306.09,cs),
(408.12,242.16,o),
(314.44,164.79,o),
(254.26,183.85,cs),
(217.54,195.49,o),
(253.3,323.26,o),
(290.89,374.11,cs),
(335.38,434.31,o),
(398.17,484.01,o),
(441.99,466.23,cs)
);
}
);
width = 636;
}
);
note = O;
unicode = (79,210,211,212,213,214,216);
},
{
glyphname = P;
kernLeft = P;
kernRight = P;
layers = (
{
layerId = m01;
shapes = (
{
closed = 1;
nodes = (
(327.84,700,ls),
(247.18,700,o),
(182.82,673.38,o),
(178.14,634.01,cs),
(174.01,599.15,o),
(201.05,585.19,o),
(192.33,544.2,cs),
(183.62,503.22,o),
(7.49,291.29,o),
(-18.09,193.97,cs),
(-38.13,117.81,o),
(-7.94,0,o),
(78.41,0,cs),
(182.41,0,o),
(218.29,60.55,o),
(266.29,143.71,c),
(443.53,143.71,o),
(618.18,223.2,o),
(655.47,395.96,cs),
(692.76,568.72,o),
(551.36,700.01,o),
(327.83,700.01,cs)
);
},
{
closed = 1;
nodes = (
(470.28,438.84,ls),
(501.2,422.55,o),
(492.16,370.71,o),
(458.35,318.89,cs),
(426.97,270.82,o),
(348.33,217.88,o),
(308.76,240.07,cs),
(269.19,262.26,o),
(319.02,362.31,o),
(351.95,400.28,cs),
(384.89,438.26,o),
(439.36,455.13,o),
(470.29,438.83,cs)
);
}
);
width = 656;
}
);
note = P;
unicode = 80;
},
{
glyphname = Q;
kernLeft = O;
kernRight = Q;
lastChange = "2024-02-24 17:47:52 +0000";
layers = (
{
layerId = m01;
shapes = (
{
closed = 1;
nodes = (
(210,7,o),
(271,17,o),
(328,46,c),
(437,-39,o),
(566,4,o),
(584,98,cs),
(608,223,o),
(520,143,o),
(476,179,c),
(496,206,o),
(517,237,o),
(538,274,cs),
(659,491,o),
(567,598,o),
(513,649,cs),
(473,686,o),
(347,724,o),
(263,699,cs),
(143,665,o),
(181,574,o),
(161,530,cs),
(131,459,o),
(11,382,o),
(-14,202,cs),
(-26,112,o),
(26,7,o),
(144,7,cs)
);
},
{
closed = 1;
nodes = (
(331,448,o),
(404,481,o),
(432,452,cs),
(470,414,o),
(427,338,o),
(380,282,cs),
(333,225,o),
(233,178,o),
(202,207,cs),
(174,234,o),
(246,356,o),
(289,402,cs)
);
}
);
width = 701;
}
);
note = Q;
unicode = 81;
},
{
glyphname = R;
kernLeft = P;
kernRight = R;
layers = (
{
layerId = m01;
shapes = (
{
closed = 1;
nodes = (
(689.59,574.31,o),
(552.14,699.98,o),
(328.61,699.98,cs),
(247.95,699.98,o),
(191.76,671.63,o),
(178.91,634.25,cs),
(166.06,596.89,o),
(209.47,593.67,o),
(200.75,552.86,cs),
(192.04,512.05,o),
(-24.91,242.48,o),
(-36.41,141.33,cs),
(-47.4,44.62,o),
(-7.18,2.9,o),
(79.18,2.9,cs),
(166.68,2.9,o),
(218.41,66.9,o),
(265.78,143.81,c),
(316.11,55.43,o),
(385.71,2.86,o),
(448.31,0.1,cs),
(517.98,-2.98,o),
(623.17,67.55,o),
(623.17,117.98,cs),
(623.17,188.82,o),
(479.86,140.03,o),
(455.62,206.16,c),
(553.06,251.17,o),
(631.99,311.98,o),
(651.83,402.37,cs)
);
},
{
closed = 1;
nodes = (
(426.08,269.79,o),
(342.38,225.46,o),
(305.33,251.54,cs),
(268.28,277.62,o),
(328.19,371.56,o),
(364.88,405.77,cs),
(401.58,439.98,o),
(457.51,451.08,o),
(486.56,431.74,cs),
(515.63,412.42,o),
(501.28,362,o),
(462.27,314.17,cs)
);
}
);
width = 754;
}
);
note = R;
unicode = 82;
},
{
glyphname = S;
kernRight = S;
layers = (
{
layerId = m01;
shapes = (
{
closed = 1;
nodes = (
(167.14,642.72,o),
(126.1,577.46,o),
(129.25,530.27,cs),
(138.07,397.99,o),
(323.26,360.5,o),
(297.93,265.9,cs),
(287.48,226.84,o),
(228.47,208.39,o),
(184.37,219.42,cs),
(94.23,241.96,o),
(10.21,305.4,o),
(-40.51,230.44,cs),
(-104.77,135.45,o),
(-7.89,0,o),
(193.62,0,cs),
(395.13,0,o),
(510.63,75.83,o),
(521.1,211.89,cs),
(533.19,369.22,o),
(267.28,387.21,o),
(317,497.11,cs),
(338.7,545.11,o),
(399.46,547.3,o),
(442.28,517.06,cs),
(479.75,490.6,o),
(570.14,446.5,o),
(605.42,488.39,cs),
(674.16,570.01,o),
(546.51,683.67,o),
(418.38,696.31,cs),
(350.64,702.98,o),
(250.9,703.63,o),
(196.23,663.88,cs)
);
}
);
width = 617;
}
);
note = S;
unicode = 83;
},
{
glyphname = T;
kernRight = T;
lastChange = "2024-02-24 17:45:43 +0000";
layers = (
{
layerId = m01;
shapes = (
{
closed = 1;
nodes = (
(73.21,611.89,o),
(81.26,566.6,o),
(112.01,550.13,cs),
(141.67,534.26,o),
(224.83,525.21,o),
(254.76,524.14,c),
(138.54,394.24,o),
(32.95,225.36,o),
(16.55,148.85,cs),
(-1.9,62.82,o),
(32.14,0.01,o),
(131.56,0.01,cs),
(220.72,0.01,o),
(378.05,343.54,o),
(499.64,505.38,c),
(602.63,495.28,o),
(670.55,522.71,o),
(686.35,591.97,cs),
(704.17,670.09,o),
(565,699.74,o),
(464.1,699.74,cs),
(365.87,699.76,o),
(100.05,706.53,o),
(80.27,636.74,cs)
);
}
);
width = 587;
}
);
note = T;
unicode = 84;
},
{
glyphname = U;
kernRight = U;
layers = (
{
layerId = m01;
shapes = (
{
closed = 1;
nodes = (
(-1.15,127.68,o),
(49.58,0,o),
(152.97,0,cs),
(262.87,0,o),
(348.97,71.68,o),
(393.49,130.92,c),
(384.01,82.55,o),
(406.34,2.14,o),
(460.15,2.14,cs),
(568.79,2.14,o),
(626.96,204.6,o),
(679.15,339.77,cs),
(731.32,474.94,o),
(894.72,699.8,o),
(762.66,699.8,cs),
(657.96,699.8,o),
(561.41,507.46,o),
(528.65,429.72,cs),
(495.87,352,o),
(423.67,219.84,o),
(326.54,245.11,cs),
(203.57,277.12,o),
(415.95,513.04,o),
(432.61,582.35,cs),
(454.59,673.82,o),
(396.84,700,o),
(324.6,700,cs),
(213.25,700,o),
(35.57,351.77,o),
(17.19,239.59,cs)
);
}
);
width = 818;
}
);
note = U;
unicode = (85,217,218,219,220);
},
{
glyphname = V;
kernRight = V;
layers = (
{
layerId = m01;
shapes = (
{
closed = 1;
nodes = (
(142.72,594.88,o),
(184.86,591.31,o),
(183.4,538.79,cs),
(181.95,486.27,o),
(84.74,328.77,o),
(76.9,217.14,cs),
(69.06,105.51,o),
(71.67,0,o),
(189.42,0,cs),
(307.18,0,o),
(396.2,74.03,o),
(496.9,188.51,cs),
(597.61,303.01,o),
(801.52,590.91,o),
(817.8,641.39,cs),
(834.09,691.88,o),
(744.24,708.86,o),
(711.9,667.52,cs),
(648.12,586.02,o),
(419.81,199.64,o),
(354.2,237.09,cs),
(288.6,274.54,o),
(574.91,562.1,o),
(533.6,644.54,cs),
(490.28,731.05,o),
(174.11,703.45,o),
(158.41,649.16,cs)
);
}
);
width = 684;
}
);
note = V;
unicode = 86;
},
{
glyphname = W;
kernLeft = M;
kernRight = W;
lastChange = "2024-02-12 14:44:16 +0000";
layers = (
{
layerId = m01;
shapes = (
{
closed = 1;
nodes = (
(131.3,599.36,o),
(168.05,542.97,o),
(218.38,524.95,c),
(121.84,415.63,o),
(34.14,270.46,o),
(19.55,191.21,cs),
(4.95,111.95,o),
(7.33,0.02,o),
(127.44,0.02,cs),
(282.87,0.02,o),
(447.27,226.8,o),
(481.64,267.51,c),
(428.74,159.3,o),
(440,1,o),
(506.44,1.12,cs),
(610,1,o),
(652.47,36.93,o),
(735.72,120.47,cs),
(818.97,204.02,o),
(1069.52,605.75,o),
(1031.03,664.9,cs),
(1001.91,709.64,o),
(957.78,702.42,o),
(919.63,679.37,cs),
(798.11,605.92,o),
(701.95,208.08,o),
(636.88,230.42,cs),
(571.82,252.77,o),
(709.19,480.43,o),
(629.88,510.65,cs),
(555.07,539.16,o),
(415.31,276.4,o),
(355.95,307.74,cs),
(296.57,339.08,o),
(569.7,594.16,o),
(502.92,650.37,c),
(483.04,705.83,o),
(235.64,724.89,o),
(177.01,654.36,cs)
);
}
);
width = 936;
}
);
note = W;
unicode = 87;
},
{
glyphname = X;
kernRight = X;
layers = (
{
layerId = m01;
shapes = (
{
closed = 1;
nodes = (
(144.07,568.72,o),
(183.01,587.42,o),
(211.34,539.37,cs),
(239.68,491.31,o),
(260.12,441.23,o),
(290.95,382.36,c),
(230.17,345.28,o),
(30.17,177.98,o),
(24.76,106.42,cs),
(19.35,34.86,o),
(61.47,1.59,o),
(112.5,1.59,cs),
(162.76,1.59,o),
(263.46,121.22,o),
(325.65,183.63,c),
(349.4,111.35,o),
(390.58,0.02,o),
(461.12,0.02,cs),
(531.66,0.02,o),
(593.67,28.16,o),
(627.07,102.45,cs),
(660.48,176.73,o),
(572.67,323.58,o),
(546.07,374.17,c),
(576.32,405.02,o),
(803.04,582.02,o),
(811.31,627.18,cs),
(819.59,672.35,o),
(779.83,709.56,o),
(712.89,692.51,cs),
(647.65,675.9,o),
(505.68,558.67,o),
(474.56,525.93,c),
(453.47,583.92,o),
(409.34,671.53,o),
(329.8,693.74,cs),
(250.26,715.93,o),
(153.84,676.17,o),
(148.96,622.44,cs)
);
}
);
width = 770;
}
);
note = X;
unicode = 88;
},
{
glyphname = Y;
kernRight = Y;
layers = (
{
layerId = m01;
shapes = (
{
closed = 1;
nodes = (
(153.42,630.89,o),
(169.33,617.58,o),
(164.45,586.81,cs),
(162.11,572.09,o),
(89.41,506.17,o),
(98.32,408.24,cs),
(109.34,286.98,o),
(230.6,251.7,o),
(343.04,236.28,cs),
(397.45,228.81,o),
(379.97,169.94,o),
(323.2,152.51,cs),
(233.62,124.98,o),
(23.37,223.05,o),
(-13.31,151.91,cs),
(-37.92,104.15,o),
(19.45,-0.03,o),
(174.34,-0.03,cs),
(302.42,-0.03,o),
(411.87,9.68,o),
(523.89,131.03,cs),
(631.13,247.21,o),
(723.64,523.22,o),
(764.11,560.34,cs),
(790.57,584.6,o),
(817.03,611.06,o),
(803.89,646.35,cs),
(789.19,685.83,o),
(737.48,699.97,o),
(680.88,699.97,cs),
(624.28,699.97,o),
(572.34,648.54,o),
(555.28,604.65,cs),
(534.44,551.03,o),
(486.37,417.21,o),
(454.34,408.05,cs),
(412.64,396.13,o),
(362.03,411.8,o),
(350.09,452.73,cs),
(329.25,524.22,o),
(421.58,580.81,o),
(415.63,619.54,cs),
(407.46,672.62,o),
(317.33,697,o),
(287.55,697,cs),
(257.75,697,o),
(188.1,705.16,o),
(168.86,663.96,cs)
);
}
);
width = 708;
}
);
note = Y;
unicode = (89,221,376);
},
{
glyphname = Z;
kernRight = Z;
layers = (
{
layerId = m01;
shapes = (
{
closed = 1;
nodes = (
(169.79,465.31,o),
(319.38,465.8,o),
(471.51,476.81,c),
(321.59,355.55,o),
(108.51,226.24,o),
(52.63,170.37,cs),
(8.53,126.29,o),
(15.14,-10.41,o),
(116.56,0.62,cs),
(199.63,9.65,o),
(455.97,0.13,o),
(526.97,0.13,cs),
(559.96,0.13,o),
(616.31,28.64,o),
(632.44,71.18,cs),
(656.7,135.13,o),
(633.12,181.69,o),
(602.71,194.38,cs),
(545.91,218.06,o),
(426.89,222.94,o),
(330.41,199.05,c),
(368.28,255.89,o),
(676.79,455.58,o),
(705.19,507.7,cs),
(717.97,531.13,o),
(733.86,567.22,o),
(729.45,604.7,cs),
(724.57,646.19,o),
(695.87,680.97,o),
(665.52,690.68,cs),
(589.61,714.97,o),
(331.15,694.14,o),
(260.15,694.14,cs),
(189.13,694.14,o),
(147.41,644.39,o),
(156.23,573.83,cs)
);
}
);
width = 806;
}
);
note = Z;
unicode = 90;
},
{
glyphname = a;
kernLeft = a;
kernRight = a;
layers = (
{
layerId = m01;
shapes = (
{
closed = 1;
nodes = (
(-9.18,115.89,o),
(39.35,1.41,o),
(138.35,1.41,cs),
(237.35,1.41,o),
(287.08,55.12,o),
(328.94,117.89,c),
(314.45,55.12,o),
(338.95,1.41,o),
(385.83,1.41,cs),
(460.31,1.41,o),
(492.49,36.95,o),
(493.37,68.23,cs),
(493.95,88.76,o),
(462.08,104.96,o),
(457.25,124.41,cs),
(450.74,150.66,o),
(535.41,312.92,o),
(574.24,386.68,cs),
(588.87,414.45,o),
(581.34,462.84,o),
(545.35,462.84,cs),
(509.35,462.84,o),
(468.8,445.22,o),
(434.19,409.08,c),
(415.41,440.44,o),
(387.64,471.8,o),
(306.63,471.8,cs),
(167.14,471.8,o),
(47.96,313.28,o),
(16.3,203.93,cs)
);
},
{
closed = 1;
nodes = (
(348.01,224.55,ls),
(310.61,163.81,o),
(266.48,120.86,o),
(225.18,140.92,cs),
(201.38,152.49,o),
(184.63,214.09,o),
(226.41,287.89,cs),
(253.57,335.86,o),
(299.89,361.37,o),
(341.65,336.79,cs),
(378.52,315.07,o),
(376.74,271.18,o),
(348.02,224.56,cs)
);
}
);
width = 587;
}
);
note = a;
unicode = (97,224,225,226,227,228,229);
},
{
glyphname = b;
kernLeft = b;
kernRight = b;
layers = (
{
layerId = m01;
shapes = (
{
closed = 1;
nodes = (
(207.12,619.15,o),
(251.9,591.24,o),
(240.58,560.84,cs),
(229.26,530.44,o),
(57.56,336.66,o),
(28.57,212.34,cs),
(-0.95,85.83,o),
(65.65,2.04,o),
(186.82,2.04,cs),
(383.73,2.04,o),
(538.99,152.87,o),
(538.99,323.78,cs),
(538.99,389.77,o),
(456.02,479.01,o),
(325.07,402.15,c),
(396.47,480.04,o),
(439.85,557.69,o),
(443.84,596.44,cs),
(449.46,651.04,o),
(406.91,686.09,o),
(368.12,695.96,cs),
(304.28,712.2,o),
(208.2,695.96,o),
(208.2,647.28,cs)
);
},
{
closed = 1;
nodes = (
(355.81,208.59,ls),
(318.41,147.85,o),
(274.28,104.9,o),
(232.98,124.96,cs),
(209.18,136.53,o),
(192.43,198.13,o),
(234.21,271.93,cs),
(261.37,319.9,o),
(307.69,345.41,o),
(349.45,320.83,cs),
(386.31,299.11,o),
(384.52,255.22,o),
(355.82,208.6,cs)
);
}
);
width = 561;
}
);
note = b;
unicode = 98;
},
{
glyphname = c;
kernLeft = c;
kernRight = c;
lastChange = "2024-02-24 17:49:02 +0000";
layers = (
{
layerId = m01;
shapes = (
{
closed = 1;
nodes = (
(134.12,402.26,o),
(158.43,386.09,o),
(148.52,365.21,cs),
(134.49,335.67,o),
(5.25,275.43,o),
(1.22,168.82,cs),
(-1.77,89.75,o),
(71.38,6.63,o),
(177.71,6.63,cs),
(305.79,6.63,o),
(456.22,64.96,o),
(456.22,136.67,cs),
(456.22,208.39,o),
(272.38,121.57,o),
(223.77,180.39,cs),
(193.97,216.44,o),
(194.28,288.93,o),
(282.41,322,cs),
(336.47,342.28,o),
(400.64,325.78,o),
(433.33,333.78,cs),
(486.46,346.75,o),
(500.11,360.87,o),
(507.5,381.54,cs),
(524.53,429.25,o),
(457.68,476.53,o),
(334.04,479,cs),
(232.68,481.03,o),
(152.3,466.21,o),
(140.26,423.89,cs)
);
}
);
width = 506;
}
);
note = c;
unicode = (99,231);
},
{
glyphname = d;
kernLeft = d;
kernRight = d;
layers = (
{
layerId = m01;
shapes = (
{
closed = 1;
nodes = (
(400.58,613.77,o),
(469.18,606.02,o),
(468.94,577.06,cs),
(468.7,549.53,o),
(422.79,440.75,o),
(390.49,385.47,c),
(371.75,421.17,o),
(323.17,455.61,o),
(270.23,455.61,cs),
(194.61,455.61,o),
(76.49,388.81,o),
(29.73,221.79,cs),
(0.12,116.05,o),
(70.98,0.87,o),
(207.09,0.87,cs),
(314.73,0.87,o),
(406.21,36.06,o),
(458.48,127.55,cs),
(519.33,234.04,o),
(667.55,553.54,o),
(659.71,629.33,cs),
(651.77,706.03,o),
(467.58,729.52,o),
(426,657.68,cs)
);
},
{
closed = 1;
nodes = (
(343.33,225.45,ls),
(305.93,164.71,o),
(266,127.59,o),
(220.5,141.82,cs),
(195.25,149.73,o),
(179.95,214.99,o),
(221.73,288.79,cs),
(248.89,336.76,o),
(295.21,362.27,o),
(336.97,337.69,cs),
(373.84,315.97,o),
(372.06,272.08,o),
(343.34,225.46,cs)
);
}
);
width = 599;
}
);
note = d;
unicode = 100;
},
{
glyphname = e;
kernLeft = e;
kernRight = e;
layers = (
{
layerId = m01;
shapes = (
{
closed = 1;
nodes = (
(100.27,386.92,o),
(127.31,384.56,o),
(112.34,344.29,cs),
(97.38,304.02,o),
(11.68,241.25,o),
(-0.38,169.94,cs),
(-18.63,62.07,o),
(68.99,1.71,o),
(191.98,1.71,cs),
(334.27,1.71,o),
(412.52,52.2,o),
(419.74,104.7,cs),
(423.82,134.35,o),
(387.98,162.7,o),
(358.09,151.32,cs),
(328.2,139.94,o),
(252.83,79.17,o),
(199.08,95.09,cs),
(162.98,105.78,o),
(162.31,153.66,o),
(183.75,169.5,cs),
(216.97,194.04,o),
(321.9,182.78,o),
(372.38,198.73,cs),
(444.94,221.66,o),
(533.33,254.08,o),
(531.79,336.89,cs),
(529.81,443.4,o),
(411.23,474.21,o),
(318.99,474.21,cs),
(226.73,474.21,o),
(126.79,466.53,o),
(113.54,426.77,cs)
);
},
{
closed = 1;
nodes = (
(212.58,282.73,o),
(245.51,337.33,o),
(302.74,359.4,cs),
(323.53,367.41,o),
(367.98,377.25,o),
(377.15,352.65,cs),
(386.79,326.73,o),
(372.18,295.39,o),
(344.79,275.26,cs),
(324.05,260.02,o),
(233.21,228.69,o),
(222.9,255.71,cs)
);
}
);
width = 529;
}
);
note = e;
unicode = (101,232,233,234,235);
},
{
glyphname = f;
kernLeft = f;
layers = (
{
layerId = m01;
shapes = (
{
closed = 1;
nodes = (
(145.35,401.57,o),
(171.17,368.79,o),
(173.28,343.39,cs),
(175.91,312,o),
(35.76,17.1,o),
(-5.87,-5.61,cs),
(-47.5,-28.33,o),
(-110.19,-25.33,o),
(-117.56,-49.82,cs),
(-124.44,-72.69,o),
(-96.96,-116.11,o),
(-54.73,-126.59,cs),
(5.4,-141.54,o),
(107.44,-139.75,o),
(162.71,-73.44,cs),
(228.13,5.07,o),
(232.76,34.15,o),
(259.66,75.52,cs),
(281.4,108.95,o),
(315.03,140.71,o),
(361.62,140.71,cs),
(403.94,140.71,o),
(421.87,162.74,o),
(425.13,174.14,cs),
(432.94,201.44,o),
(414.21,243.18,o),
(374.66,243.18,cs),
(348.69,243.18,o),
(306.62,227.48,o),
(276.85,201.7,c),
(285.69,251.02,o),
(334.53,332.58,o),
(382.69,345.71,cs),
(433.88,359.68,o),
(438.87,336.75,o),
(471.47,326.9,cs),
(501.94,317.7,o),
(557.57,348.69,o),
(557.57,409.26,cs),
(557.57,469.83,o),
(455.37,496.34,o),
(356.95,496.34,cs),
(257.04,496.34,o),
(182.3,482.85,o),
(156.99,427.16,cs)
);
}
);
width = 535;
}
);
note = f;
unicode = 102;
},
{
glyphname = g;
kernLeft = g;
kernRight = g;
layers = (
{
layerId = m01;
shapes = (
{
closed = 1;
nodes = (
(-4.15,189.76,o),
(7.07,87.82,o),
(58.66,55.19,cs),
(123.41,14.22,o),
(194.15,61.91,o),
(208.18,41.73,cs),
(222.22,21.55,o),
(175.89,-39.73,o),
(135.27,-39.73,cs),
(69.5,-39.73,o),
(-36.28,23.94,o),
(-62.18,-30.02,cs),
(-84.13,-75.75,o),
(21.26,-152.96,o),
(134.63,-152.96,cs),
(217.9,-152.96,o),
(289.75,-135.41,o),
(351.7,-37.51,cs),
(403.31,44.04,o),
(581.83,344.5,o),
(562.89,405.07,cs),
(543.96,465.64,o),
(510.51,465.11,o),
(480.52,460.91,cs),
(451.52,456.87,o),
(427.63,425.31,o),
(403.64,418.86,cs),
(371.11,410.11,o),
(343.47,468.47,o),
(246.37,468.47,cs),
(170.84,468.47,o),
(111.16,389.91,o),
(63.21,306.61,cs)
);
},
{
closed = 1;
nodes = (
(316.63,158.66,o),
(278.94,124.64,o),
(236.02,137.68,cs),
(212.2,144.92,o),
(197.76,204.76,o),
(237.18,272.41,cs),
(262.8,316.41,o),
(306.52,339.79,o),
(345.89,317.25,cs),
(380.66,297.34,o),
(378.98,257.1,o),
(351.91,214.35,cs)
);
}
);
width = 553;
}
);
note = g;
unicode = 103;
},
{
glyphname = h;
kernLeft = h;
kernRight = h;
layers = (
{
layerId = m01;
shapes = (
{
closed = 1;
nodes = (
(383.36,7.58,ls),
(500.66,-19.02,o),
(552.73,41.53,o),
(535.14,77,cs),
(517.55,112.47,o),
(500.25,116.55,o),
(500.25,132.84,cs),
(500.25,163.73,o),
(639.52,328.65,o),
(547.8,413.31,cs),
(476.31,479.3,o),
(358.8,389.96,o),
(320.3,369.28,c),
(305.56,395.04,o),
(430.2,565.65,o),
(436.06,612.95,cs),
(441.92,660.25,o),
(382.26,692.17,o),
(331.78,698.81,cs),
(234.55,711.59,o),
(177.39,661.71,o),
(168.59,626.24,cs),
(158.53,585.68,o),
(201.53,590.65,o),
(201.53,565.22,cs),
(201.53,526.95,o),
(45.67,270.64,o),
(4.44,161.32,cs),
(-16.02,107.05,o),
(-13.59,19.71,o),
(53.55,4.9,cs),
(119.7,-9.68,o),
(186.13,6.46,o),
(206.66,59.68,c),
(212.52,98.11,o),
(187.13,96.83,o),
(185.8,118.32,cs),
(184.7,136.01,o),
(241.4,241.38,o),
(267.63,267.82,cs),
(301.9,302.35,o),
(380.82,328.14,o),
(401.35,286.76,cs),
(421.88,245.37,o),
(338.66,154.21,o),
(327.62,98.51,cs),
(317.44,47.13,o),
(339.19,17.62,o),
(383.38,7.58,cs)
);
}
);
width = 632;
}
);
note = h;
unicode = 104;
},
{
glyphname = i;
kernLeft = i;
kernRight = i;
layers = (
{
layerId = m01;
shapes = (
{
closed = 1;
nodes = (
(181.12,637.94,o),
(143.42,558.51,o),
(177.57,534.97,cs),
(211.71,511.43,o),
(361.18,547.76,o),
(370.63,579.11,cs),
(377.72,602.58,o),
(320.56,655.59,o),
(250.84,646.77,cs)
);
},
{
closed = 1;
nodes = (
(134.1,468.51,o),
(70.91,433.3,o),
(69.68,396.87,cs),
(68.91,373.58,o),
(93.66,368.9,o),
(100.74,344.05,cs),
(106.95,322.3,o),
(2.62,164.53,o),
(-6.83,121.97,cs),
(-18.61,68.98,o),
(-6.18,33.4,o),
(54,10.11,cs),
(114.83,-13.45,o),
(260.15,0.66,o),
(256.13,67.02,cs),
(253.63,108.2,o),
(216.88,102.35,o),
(209.04,125.89,cs),
(197.81,159.61,o),
(326.19,334.54,o),
(338.56,373.17,cs),
(355.17,424.92,o),
(287.93,468.51,o),
(201.59,468.51,cs)
);
}
);
width = 379;
}
);
note = i;
unicode = (105,236,237,238,239);
},
{
glyphname = j;
kernRight = j;
layers = (
{
layerId = m01;
shapes = (
{
closed = 1;
nodes = (
(181.29,444.71,o),
(93.39,27.96,o),
(57.58,18.19,cs),
(21.76,8.43,o),
(-82.42,54.01,o),
(-111.72,8.43,cs),
(-141.02,-37.16,o),
(-18.29,-134.95,o),
(56.6,-134.95,cs),
(131.48,-134.95,o),
(187.82,-118.55,o),
(239.91,-76.22,cs),
(292.01,-33.89,o),
(427.39,315.96,o),
(448.28,334.02,cs),
(477.87,359.61,o),
(545.91,350.64,o),
(545.91,396.23,cs),
(545.89,441.8,o),
(465.16,479.57,o),
(366.87,467.49,cs)
);
},
{
closed = 1;
nodes = (
(386.14,632.36,o),
(342.14,553.15,o),
(374.41,529.67,cs),
(406.68,506.2,o),
(559.04,542.43,o),
(570.99,573.68,cs),
(579.91,597.09,o),
(526.96,649.96,o),
(456.56,641.16,cs)
);
}
);
width = 564;
}
);
note = j;
unicode = 106;
},
{
glyphname = k;
kernLeft = k;
kernRight = k;
layers = (
{
layerId = m01;
shapes = (
{
closed = 1;
nodes = (
(551.64,379.03,o),
(525.76,430.66,o),
(480.41,433.89,cs),
(435.07,437.13,o),
(311.94,312.49,o),
(269.83,267.15,c),
(344.31,412.87,o),
(455.42,582.94,o),
(452.18,634.76,cs),
(448.94,686.58,o),
(336.38,710.08,o),
(268.01,696.29,cs),
(203.28,683.24,o),
(179.67,650.19,o),
(179.67,621.04,cs),
(179.67,591.9,o),
(220.27,578.11,o),
(213.62,547.28,cs),
(195.28,462.3,o),
(-20.51,150.31,o),
(-31.12,90.14,cs),
(-38.92,45.9,o),
(-28.51,2.34,o),
(31.34,2.34,cs),
(102.27,2.34,o),
(131.53,15.64,o),
(198.03,136.81,c),
(210.98,55.85,o),
(275.5,0.17,o),
(369.41,0.17,cs),
(421.12,0.17,o),
(441.95,31.37,o),
(447.72,56.33,cs),
(453.39,80.8,o),
(444.45,123.99,o),
(390.46,123.99,cs),
(356.63,123.99,o),
(295.07,174.92,o),
(299.37,196.86,cs),
(309.19,246.77,o),
(486.78,319.19,o),
(520.61,350.41,cs)
);
}
);
width = 588;
}
);
note = k;
unicode = 107;
},
{
glyphname = l;
kernLeft = h;
layers = (
{
layerId = m01;
shapes = (
{
closed = 1;
nodes = (
(170.47,598.46,o),
(208.37,580.05,o),
(206.2,551.9,cs),
(204.57,530.74,o),
(-8.25,159.81,o),
(-12.8,92.28,cs),
(-15.93,45.99,o),
(16.77,-4.5,o),
(110.91,-4.5,cs),
(205.04,-4.5,o),
(276.18,36.59,o),
(276.18,71.07,cs),
(276.18,105.55,o),
(200.19,114.82,o),
(200.19,136.03,cs),
(200.19,157.24,o),
(434.34,564.96,o),
(441.46,600.04,cs),
(450.88,646.45,o),
(386.58,695.5,o),
(324.72,695.5,cs),
(262.86,695.5,o),
(185.68,665.87,o),
(176.81,626.57,cs)
);
}
);
width = 371;
}
);
note = l;
unicode = 108;
},
{
glyphname = m;
kernLeft = m;
kernRight = m;
layers = (
{
layerId = m01;
shapes = (
{
closed = 1;
nodes = (
(795.95,453.58,ls),
(740.34,487.95,o),
(633.22,456.49,o),
(573.1,411.28,c),
(576.69,435.08,o),
(572.89,453.56,o),
(557.67,462.98,cs),
(496.8,500.61,o),
(372.33,436.21,o),
(341.19,398.42,c),
(336.82,439.04,o),
(338.01,490.45,o),
(277.81,490.45,cs),
(159.11,490.45,o),
(123.98,452.06,o),
(110.02,408.29,cs),
(100.9,379.71,o),
(145.93,368.34,o),
(139.19,339.86,cs),
(132.45,311.39,o),
(-8.83,113.09,o),
(-10.56,81.61,cs),
(-12.87,39.98,o),
(-2.82,1.39,o),
(79.74,1.39,cs),
(162.31,1.39,o),
(171.6,27.78,o),
(180.63,51.14,cs),
(190.87,77.65,o),
(183.64,85.67,o),
(180.04,108.1,cs),
(176.44,130.54,o),
(261.99,269.31,o),
(290.96,291.12,cs),
(328.9,319.68,o),
(348.38,325.98,o),
(360,296.53,cs),
(372.67,264.42,o),
(275.81,114.77,o),
(267.93,90.75,cs),
(257.29,58.25,o),
(259.81,2.41,o),
(339.7,2.41,cs),
(386.01,2.41,o),
(435.02,3.83,o),
(448.03,39.37,cs),
(461.03,74.91,o),
(424.46,82.25,o),
(426.35,102.93,cs),
(429.06,132.72,o),
(492.22,231.73,o),
(514.62,271.4,cs),
(537.02,311.07,o),
(593.46,325.28,o),
(605.08,295.85,cs),
(617.75,263.74,o),
(506.22,115.11,o),
(502.16,77.2,cs),
(498.52,43.21,o),
(528.17,6.04,o),
(584.74,1.39,cs),
(630.05,-2.34,o),
(691.61,3.82,o),
(704.62,39.37,cs),
(717.62,74.91,o),
(686.51,89.14,o),
(683.57,109.7,cs),
(679.7,137.09,o),
(874.5,405.03,o),
(795.97,453.58,cs)
);
}
);
width = 822;
}
);
note = m;
unicode = 109;
},
{
glyphname = n;
kernLeft = n;
kernRight = m;
layers = (
{
layerId = m01;
shapes = (
{
closed = 1;
nodes = (
(542.4,432.34,ls),
(499.18,470.98,o),
(360.31,438.52,o),
(306.6,396.24,c),
(303.33,431.75,o),
(272.84,473,o),
(226.4,473,cs),
(137.06,473,o),
(108.59,455.48,o),
(96.53,413.64,cs),
(88.66,386.31,o),
(128.61,362.56,o),
(122.82,335.31,cs),
(117.03,308.08,o),
(3.12,158.21,o),
(-1.38,101.88,cs),
(-4.56,62.15,o),
(7.11,0.48,o),
(79.73,0.48,cs),
(152.36,0.48,o),
(171.05,27.71,o),
(178.87,50.06,cs),
(187.76,75.42,o),
(168.63,71.41,o),
(165.36,92.87,cs),
(162.07,114.33,o),
(197.7,227.83,o),
(260,279.88,cs),
(288.37,303.59,o),
(358.77,305.54,o),
(366.87,283.5,cs),
(378.18,252.79,o),
(273.66,115.76,o),
(276.25,71.73,cs),
(278.14,39.37,o),
(310.62,2.87,o),
(360.55,2.87,cs),
(410.48,2.87,o),
(461.14,19.29,o),
(461.14,44.21,cs),
(461.14,80.02,o),
(438.9,80.93,o),
(436.22,100.6,cs),
(432.62,126.82,o),
(617.21,365.48,o),
(542.39,432.37,cs)
);
}
);
width = 588;
}
);
note = n;
unicode = (110,241);
},
{
glyphname = o;
kernLeft = o;
kernRight = o;
layers = (
{
layerId = m01;
shapes = (
{
closed = 1;
nodes = (
(361.03,462.66,o),
(261.23,487.18,o),
(192.56,470.69,cs),
(96.22,447.57,o),
(129,393.24,o),
(115.63,363.27,cs),
(94.4,315.7,o),
(-5.23,255.43,o),
(1.04,134.09,cs),
(4.21,72.72,o),
(73.12,3.63,o),
(170.83,3.63,cs),
(313.89,3.63,o),
(386.52,32.73,o),
(465.39,183.93,cs),
(545.07,336.65,o),
(452.46,419.99,o),
(400.38,444.3,cs)
);
},
{
closed = 1;
nodes = (
(291.59,144.52,o),
(240.54,105.45,o),
(203.61,120.22,cs),
(174.67,131.79,o),
(160.86,195.63,o),
(202.61,269.39,cs),
(229.75,317.34,o),
(271.91,340.13,o),
(317.8,318.27,cs),
(356.41,299.86,o),
(349.77,254.46,o),
(324.17,206.09,cs)
);
}
);
width = 518;
}
);
note = o;
unicode = (111,242,243,244,245,246,248);
},
{
glyphname = p;
kernLeft = p;
kernRight = o;
lastChange = "2024-02-24 17:48:48 +0000";
layers = (
{
layerId = m01;
shapes = (
{
closed = 1;
nodes = (
(215.48,488.65,o),
(134.2,477.52,o),
(111.25,394.9,cs),
(99.68,353.28,o),
(132.06,348.66,o),
(120.79,295.6,cs),
(113.49,261.26,o),
(4.87,35.55,o),
(-16.39,5.33,cs),
(-36.69,-23.53,o),
(-82.14,-41.5,o),
(-82.14,-63.27,cs),
(-82.14,-85.04,o),
(-72.32,-124.01,o),
(1.02,-133.99,cs),
(106.63,-148.36,o),
(166.31,-52.12,o),
(196.79,8.83,c),
(293.88,8.83,o),
(423.35,34.26,o),
(497.32,177.58,cs),
(572.34,322.97,o),
(501.94,457.32,o),
(353.98,473.49,cs)
);
},
{
closed = 1;
nodes = (
(386.88,216.78,ls),
(349.62,159.92,o),
(298.89,115.07,o),
(260.98,132.76,cs),
(235.12,144.84,o),
(253.4,219.89,o),
(296.61,268.19,cs),
(316.03,289.91,o),
(354.06,326.06,o),
(382.69,306.97,cs),
(411.32,287.88,o),
(405.46,245.14,o),
(386.87,216.77,cs)
);
}
);
width = 537;
}
);
note = p;
unicode = 112;
},
{
glyphname = q;
kernLeft = q;
kernRight = q;
layers = (
{
layerId = m01;
shapes = (
{
closed = 1;
nodes = (
(363.07,5.53,o),
(548.95,284.44,o),
(533.26,357.66,cs),
(522.34,408.64,o),
(464.77,483.19,o),
(330.61,483.19,cs),
(196.47,483.19,o),
(110.46,443.9,o),
(100.45,420.35,cs),
(81.95,376.88,o),
(104.44,369.93,o),
(103.81,344.59,cs),
(102.97,310.6,o),
(36.1,252.77,o),
(28.47,164.88,cs),
(23.24,104.7,o),
(80.73,5.4,o),
(208.3,25.65,c),
(176.36,-36.84,o),
(154.21,-117.08,o),
(178.76,-144.19,cs),
(209.35,-177.97,o),
(392.03,-169.04,o),
(393.87,-94.28,cs),
(394.41,-72.53,o),
(352.46,-75.97,o),
(358.92,-26.34,cs)
);
},
{
closed = 1;
nodes = (
(205.22,150.8,o),
(220.42,232.08,o),
(263.74,287,cs),
(283.22,311.69,o),
(321.7,353.27,o),
(353.34,335.37,cs),
(384.96,317.47,o),
(381.15,271.56,o),
(362.95,239.87,cs),
(326.46,176.36,o),
(274.92,124.47,o),
(233.48,140.12,cs)
);
}
);
width = 521;
}
);
note = q;
unicode = 113;
},
{
glyphname = r;
kernLeft = m;
kernRight = r;
layers = (
{
layerId = m01;
shapes = (
{
closed = 1;
nodes = (
(131.83,437.79,ls),
(116.13,412.68,o),
(144.1,412.9,o),
(127.95,360.16,cs),
(119.44,332.39,o),
(-6.26,147.15,o),
(-11.53,89.28,cs),
(-16.8,31.41,o),
(32.08,2.48,o),
(79.44,2.48,cs),
(178.42,2.48,o),
(201.96,13.58,o),
(216.64,53.97,cs),
(226.02,79.77,o),
(213.23,91.6,o),
(214.93,126.67,cs),
(216.16,151.89,o),
(230.47,240.23,o),
(290.65,316.13,cs),
(319.84,352.93,o),
(394.85,367.69,o),
(392.69,331.83,cs),
(391.5,311.9,o),
(366.53,287.34,o),
(366.53,261.18,cs),
(366.53,228.87,o),
(384.14,206.23,o),
(432.66,206.23,cs),
(483.78,206.23,o),
(538.22,226.74,o),
(561.3,324.23,cs),
(584.84,423.6,o),
(514.65,465.79,o),
(469.23,472.84,cs),
(417.99,480.8,o),
(369.92,468.12,o),
(306.79,412.87,c),
(295.87,473.11,o),
(170.64,499.92,o),
(131.82,437.81,cs)
);
}
);
width = 550;
}
);
note = r;
unicode = 114;
},
{
glyphname = s;
kernLeft = s;
kernRight = s;
layers = (
{
layerId = m01;
shapes = (
{
closed = 1;
nodes = (
(62.76,259.6,o),
(271.93,207.28,o),
(212.93,132.57,cs),
(164.09,70.71,o),
(45.02,239.76,o),
(-16.86,152.1,cs),
(-58.23,93.49,o),
(42.57,-2.25,o),
(181.47,-2.25,cs),
(320.37,-2.25,o),
(393.97,46.45,o),
(414.89,118.83,cs),
(453.48,252.43,o),
(263.06,275.91,o),
(290.76,345.14,cs),
(320.06,418.4,o),
(450.41,286.5,o),
(482.88,337.09,cs),
(512.49,383.26,o),
(412.67,454.71,o),
(335.9,470.6,cs),
(289.94,480.1,o),
(148.75,485.06,o),
(116.43,400.27,cs)
);
}
);
width = 505;
}
);
note = s;
unicode = 115;
},
{
glyphname = t;
kernLeft = t;
layers = (
{
layerId = m01;
shapes = (
{
closed = 1;
nodes = (
(478.62,476.98,ls),
(465.88,486.62,o),
(416.72,471.41,o),
(374.69,469.91,c),
(407.71,521.73,o),
(447.89,543.5,o),
(447.89,562.21,cs),
(447.89,580.53,o),
(401.81,601.17,o),
(373.25,601.17,cs),
(277.21,601.17,o),
(246.58,537.99,o),
(203.2,468.06,c),
(184.74,470.13,o),
(165.63,468.9,o),
(147.95,464.19,cs),
(102.59,452.1,o),
(70.34,406.25,o),
(77.25,392.88,cs),
(84.16,379.51,o),
(124.36,388.84,o),
(151.59,381.21,c),
(96.13,286.8,o),
(45.01,164.94,o),
(38.54,132.41,cs),
(25.52,66.84,o),
(59.79,-1.99,o),
(164.45,-1.99,cs),
(411.59,-1.99,o),
(430.89,124.55,o),
(389.61,158.57,cs),
(346.28,194.27,o),
(295.9,99.17,o),
(242.68,135.63,cs),
(211.9,156.72,o),
(281.57,303.86,o),
(323.64,365.83,c),
(377.77,358.03,o),
(418.3,352.57,o),
(450.8,370.52,cs),
(489.91,392.12,o),
(500.24,460.65,o),
(478.63,476.99,cs)
);
}
);
width = 491;
}
);
note = t;
unicode = 116;
},
{
glyphname = u;
kernLeft = u;
kernRight = u;
layers = (
{
layerId = m01;
shapes = (
{
closed = 1;
nodes = (
(476.91,460.81,ls),
(392.61,460.81,o),
(361.72,289.1,o),
(296.57,200.43,cs),
(270.78,165.32,o),
(219.73,150.9,o),
(200.11,171.96,cs),
(162.24,212.6,o),
(288.35,348.08,o),
(286.7,405.32,cs),
(285.06,462.56,o),
(226.62,467.81,o),
(195.14,470.4,cs),
(163.66,473.01,o),
(101.92,460.37,o),
(95.06,424.97,cs),
(87.47,385.77,o),
(111.46,379.45,o),
(113.28,364.63,cs),
(116.82,335.9,o),
(9.92,187.58,o),
(20.69,94.74,cs),
(27.31,37.74,o),
(64.46,2.15,o),
(119.08,2.15,cs),
(196.4,2.15,o),
(235.26,44.38,o),
(270.46,80.81,c),
(267.64,21.19,o),
(297.48,-1.79,o),
(324.06,-1.79,cs),
(400.22,-1.79,o),
(446.56,25.69,o),
(465.6,76.87,cs),
(483.89,126.03,o),
(453.19,109.56,o),
(436.15,141.76,cs),
(426.33,160.31,o),
(489.53,308.05,o),
(521.08,333.98,cs),
(535.85,346.13,o),
(556.2,356.99,o),
(565.04,385.61,cs),
(573.89,414.29,o),
(537.34,460.81,o),
(476.93,460.81,cs)
);
}
);
width = 579;
}
);
note = u;
unicode = (117,249,250,251,252);
},
{
glyphname = v;
kernLeft = v;
layers = (
{
layerId = m01;
shapes = (
{
closed = 1;
nodes = (
(500.53,476.14,ls),
(458,476.14,o),
(408.51,457.24,o),
(406.89,433.62,cs),
(405.26,410,o),
(442,393.67,o),
(436.54,359.59,cs),
(430.91,324.33,o),
(282.8,142.38,o),
(241.9,164.95,cs),
(212.69,181.07,o),
(335.26,367.46,o),
(339.11,409.99,cs),
(342.96,452.52,o),
(292.61,476.14,o),
(217.01,476.14,cs),
(155.58,476.14,o),
(131.43,456,o),
(128.91,413.19,cs),
(127.49,389.22,o),
(150.21,377.93,o),
(148.79,346.9,cs),
(147.3,314.28,o),
(51.23,178.92,o),
(59.92,112.77,cs),
(68.62,46.62,o),
(95.18,3.66,o),
(175.16,3.66,cs),
(265.85,3.66,o),
(558.8,329.95,o),
(569.1,392.06,cs),
(578.36,447.66,o),
(543.04,476.15,o),
(500.52,476.15,cs)
);
}
);
width = 508;
}
);
note = v;
unicode = 118;
},
{
glyphname = w;
kernLeft = w;
layers = (
{
layerId = m01;
shapes = (
{
closed = 1;
nodes = (
(635.86,104.73,o),
(778.31,346.07,o),
(785.52,389.49,cs),
(794.74,445.11,o),
(725.86,474.61,o),
(683.34,474.61,cs),
(640.82,474.61,o),
(606.29,455.71,o),
(604.68,432.08,cs),
(603.07,408.45,o),
(623.39,391.57,o),
(610.91,349.99,cs),
(600.65,315.78,o),
(491.96,133.23,o),
(450.85,160.83,cs),
(409.74,188.43,o),
(521.52,345.82,o),
(473.2,364.36,cs),
(449.28,373.53,o),
(414.45,352.13,o),
(396.95,327.61,cs),
(376.2,298.54,o),
(272.1,133.81,o),
(228.44,162.92,cs),
(200.69,181.44,o),
(330.85,355.37,o),
(326.14,397.81,cs),
(319.89,453.93,o),
(269.54,474.62,o),
(193.94,474.62,cs),
(157.77,474.62,o),
(116.19,462.25,o),
(116.19,433.16,cs),
(116.19,409.13,o),
(132.82,399.91,o),
(125.71,345.38,cs),
(121.49,313.01,o),
(28.88,200.36,o),
(26.8,121.36,cs),
(25.05,54.74,o),
(45.51,15.34,o),
(107.86,0.8,cs),
(179.59,-15.95,o),
(328.89,126.15,o),
(365.51,181.1,c),
(334.55,117.36,o),
(349.99,26.57,o),
(382.22,9.11,cs),
(432.13,-17.91,o),
(496.18,5.94,o),
(550.62,44.44,cs)
);
}
);
width = 747;
}
);
note = w;
unicode = 119;
},
{
glyphname = x;
kernLeft = x;
kernRight = x;
layers = (
{
layerId = m01;
shapes = (
{
closed = 1;
nodes = (
(534.36,450.21,ls),
(516.04,453.87,o),
(432.91,407.51,o),
(336.47,346.12,c),
(321.19,397.99,o),
(307.12,444.87,o),
(295.96,459.75,cs),
(267.35,497.9,o),
(113.05,447.15,o),
(109.23,420.29,cs),
(105.43,393.45,o),
(131.56,375.81,o),
(150.64,357.2,cs),
(169.72,338.6,o),
(181.51,282.82,o),
(191.36,225.18,c),
(98.22,158.73,o),
(24.97,97.36,o),
(15.43,78.3,cs),
(-4.77,37.98,o),
(12.79,2.02,o),
(63.12,2.02,cs),
(78.92,2.02,o),
(138.98,53.65,o),
(217.42,120.85,c),
(240.45,55.61,o),
(275.08,6.78,o),
(325.36,6.78,cs),
(439.79,6.78,o),
(496.21,106.92,o),
(505.75,145.05,cs),
(515.29,183.2,o),
(448.54,164.13,o),
(410.39,168.89,cs),
(394.59,170.87,o),
(377.16,214.57,o),
(360.13,267.78,c),
(427.44,320.58,o),
(495.28,368.69,o),
(553.44,397.75,cs),
(591.59,416.84,o),
(577.28,459.75,o),
(534.37,450.22,cs)
);
}
);
width = 574;
}
);
note = x;
unicode = 120;
},
{
glyphname = y;
kernLeft = y;
kernRight = y;
layers = (
{
layerId = m01;
shapes = (
{
closed = 1;
nodes = (
(97.59,392.24,o),
(128.93,388.66,o),
(127.62,362.36,cs),
(125.87,327.03,o),
(45.72,271.87,o),
(18.03,167.5,cs),
(6.06,122.33,o),
(18.92,38.38,o),
(96.13,26.45,cs),
(190.09,11.91,o),
(214.5,67.26,o),
(249.33,46.89,cs),
(271.57,33.89,o),
(222.64,-57.6,o),
(151.03,-57.6,cs),
(82.64,-57.6,o),
(-0.05,11.68,o),
(-36.83,-43.97,cs),
(-68.75,-92.29,o),
(49.55,-173.45,o),
(137.45,-173.45,cs),
(215.47,-173.45,o),
(257.03,-160.1,o),
(320.38,-111.66,cs),
(423.72,-32.66,o),
(580.22,203.24,o),
(610.08,365.15,cs),
(620.81,423.3,o),
(554.57,453.05,o),
(530.16,453.05,cs),
(470.52,453.05,o),
(441.14,427.29,o),
(420.94,386.39,cs),
(398.47,340.87,o),
(345.43,120.34,o),
(280.17,119.55,cs),
(125,117.71,o),
(313.77,315.38,o),
(340.14,400.39,cs),
(369.45,494.8,o),
(133.24,480.82,o),
(115.4,436.53,cs)
);
}
);
width = 616;
}
);
note = y;
unicode = (121,253,255);
},
{
glyphname = z;
kernLeft = z;
kernRight = z;
layers = (
{
layerId = m01;
shapes = (
{
closed = 1;
nodes = (
(408.92,488.37,o),
(247.55,459.71,o),
(199.31,459.71,cs),
(151.08,459.71,o),
(120.59,450.12,o),
(135.68,385.47,cs),
(152.36,313.95,o),
(254.75,317.8,o),
(352,333.9,c),
(264.52,241.18,o),
(44.28,132.54,o),
(21,116.46,cs),
(-2.28,100.38,o),
(8.22,2.81,o),
(72.99,7.82,cs),
(139.25,12.93,o),
(338.33,1.68,o),
(386.63,3.83,cs),
(480.85,8.03,o),
(482.2,119.68,o),
(444.38,135.78,cs),
(406.56,151.86,o),
(292.83,143.11,o),
(238.6,131.72,c),
(266.16,170.34,o),
(463.69,304.17,o),
(484.67,339.57,cs),
(505.65,374.97,o),
(531.05,442.7,o),
(458.86,469.7,cs)
);
}
);
width = 579;
}
);
note = z;
unicode = 122;
},
{
glyphname = ellipsis;
lastChange = "2024-02-24 18:07:03 +0000";
layers = (
{
layerId = m01;
shapes = (
{
closed = 1;
nodes = (
(239,92,o),
(232,155,o),
(180,192,cs),
(129,228,o),
(64,202,o),
(30,153,cs),
(-11,94,o),
(16,41,o),
(56,13,cs),
(97,-15,o),
(158,-22,o),
(205,44,cs)
);
},
{
closed = 1;
nodes = (
(538,92,o),
(531,155,o),
(479,192,cs),
(428,228,o),
(363,202,o),
(329,153,cs),
(288,94,o),
(315,41,o),
(355,13,cs),
(396,-15,o),
(457,-22,o),
(504,44,cs)
);
},
{
closed = 1;
nodes = (
(834,92,o),
(827,155,o),
(775,192,cs),
(724,228,o),
(659,202,o),
(625,153,cs),
(584,94,o),
(611,41,o),
(651,13,cs),
(692,-15,o),
(753,-22,o),
(800,44,cs)
);
}
);
width = 831;
}
);
unicode = 8230;
},
{
glyphname = asterisk;
lastChange = "2024-02-12 14:43:59 +0000";
layers = (
{
layerId = m01;
shapes = (
{
closed = 1;
nodes = (
(539,404,o),
(508,425,o),
(482,424,cs),
(453,422,o),
(172,346,o),
(157,351,cs),
(140,356,o),
(128,363,o),
(115,350,cs),
(100,338,o),
(86,304,o),
(122,273,cs),
(156,242,o),
(440,329,o),
(458,334,cs),
(476,339,o),
(503,323,o),
(525,331,cs),
(548,338,o),
(547,362,o),
(544,375,cs)
);
},
{
closed = 1;
nodes = (
(496,201,o),
(496,239,o),
(480,260,cs),
(462,282,o),
(238,468,o),
(233,483,cs),
(227,499,o),
(226,513,o),
(208,517,cs),
(190,522,o),
(154,514,o),
(149,467,cs),
(143,421,o),
(378,239,o),
(392,227,cs),
(407,215,o),
(409,184,o),
(429,170,cs),
(447,156,o),
(466,171,o),
(475,181,cs)
);
},
{
closed = 1;
nodes = (
(268,124,o),
(302,140,o),
(314,163,cs),
(326,189,o),
(400,471,o),
(412,481,cs),
(424,494,o),
(436,501,o),
(432,519,cs),
(429,537,o),
(406,566,o),
(362,551,cs),
(318,537,o),
(252,247,o),
(247,229,cs),
(243,210,o),
(215,196,o),
(211,172,cs),
(206,149,o),
(227,138,o),
(240,134,cs)
);
}
);
width = 600;
}
);
unicode = 42;
},
{
glyphname = numbersign;
kernLeft = h;
lastChange = "2024-02-23 00:29:47 +0000";
layers = (
{
layerId = m01;
shapes = (
{
closed = 1;
nodes = (
(294,618,o),
(315,608,o),
(314,593,cs),
(313,581,o),
(90,86,o),
(88,49,cs),
(86,23,o),
(104,-4,o),
(156,-4,cs),
(207,-4,o),
(246,18,o),
(246,37,cs),
(246,56,o),
(225,51,o),
(225,63,c),
(225,79,o),
(461,600,o),
(463,609,cs),
(468,635,o),
(413,672,o),
(379,672,cs),
(345,672,o),
(303,655,o),
(298,634,cs)
);
},
{
closed = 1;
nodes = (
(554,618,o),
(556,607,o),
(555,592,cs),
(554,578,o),
(331,84,o),
(329,48,cs),
(327,22,o),
(364,-4,o),
(416,-4,cs),
(467,-4,o),
(506,18,o),
(506,37,cs),
(506,56,o),
(465,61,o),
(465,73,cs),
(465,84,o),
(699,600,o),
(703,619,cs),
(708,645,o),
(673,672,o),
(639,672,cs),
(605,672,o),
(563,655,o),
(558,634,cs)
);
},
{
closed = 1;
nodes = (
(686,424,o),
(678,403,o),
(663,403,cs),
(651,403,o),
(142,592,o),
(105,591,cs),
(79,591,o),
(53,572,o),
(56,520,cs),
(60,469,o),
(84,431,o),
(104,432,cs),
(123,434,o),
(124,456,o),
(136,457,cs),
(152,457,o),
(688,257,o),
(697,256,cs),
(723,253,o),
(749,309,o),
(746,343,cs),
(744,377,o),
(724,418,o),
(703,422,cs)
);
},
{
closed = 1;
nodes = (
(651,200,o),
(651,194,o),
(636,195,cs),
(624,195,o),
(115,383,o),
(78,383,cs),
(51,383,o),
(16,347,o),
(21,295,cs),
(24,245,o),
(49,207,o),
(67,209,cs),
(86,210,o),
(89,251,o),
(100,252,cs),
(111,253,o),
(642,55,o),
(661,52,cs),
(688,48,o),
(712,85,o),
(710,119,cs),
(708,153,o),
(688,194,o),
(666,197,cs)
);
}
);
width = 766;
}
);
note = l;
unicode = 35;
},
{
glyphname = slash;
lastChange = "2024-02-12 14:42:28 +0000";
layers = (
{
layerId = m01;
shapes = (
{
closed = 1;
nodes = (
(465,629,o),
(403,618,o),
(373,585,cs),
(341,549,o),
(124,164,o),
(99,150,cs),
(74,136,o),
(52,130,o),
(50,99,cs),
(48,68,o),
(72,11,o),
(150,15,cs),
(228,19,o),
(437,422,o),
(452,450,cs),
(467,478,o),
(519,490,o),
(536,526,cs),
(553,562,o),
(524,589,o),
(505,602,cs)
);
}
);
width = 600;
}
);
unicode = 47;
},
{
glyphname = "-";
lastChange = "2024-06-01 14:02:45 +0000";
layers = (
{
layerId = m01;
shapes = (
{
closed = 1;
nodes = (
(491,223,o),
(522,253,o),
(531,284,cs),
(546,335,o),
(520,355,o),
(511,361,cs),
(502,367,o),
(474,355,o),
(455,347,cs),
(436,339,o),
(204,388,o),
(174,385,cs),
(159,383,o),
(128,383,o),
(109,354,cs),
(96,334,o),
(87,286,o),
(97,267,cs),
(115,232,o),
(174,264,o),
(188,265,cs),
(202,266,o),
(389,229,o),
(440,226,cs)
);
}
);
width = 600;
}
);
unicode = 45;
},
{
glyphname = quotedblleft;
lastChange = "2024-02-24 17:34:54 +0000";
layers = (
{
layerId = m01;
shapes = (
{
closed = 1;
nodes = (
(183,557,o),
(225,611,o),
(202,661,cs),
(186,695,o),
(132,708,o),
(81,677,cs),
(-8,623,o),
(2,455,o),
(65,447,cs),
(113,441,o),
(119,536,o),
(140,543,cs)
);
},
{
closed = 1;
nodes = (
(389,557,o),
(431,611,o),
(408,661,cs),
(392,695,o),
(338,708,o),
(287,677,cs),
(198,623,o),
(207,447,o),
(271,447,cs),
(320,447,o),
(325,536,o),
(346,543,cs)
);
}
);
width = 439;
}
);
note = quotesingle;
unicode = 8220;
},
{
glyphname = quotedblright;
lastChange = "2024-02-24 17:36:12 +0000";
layers = (
{
layerId = m01;
shapes = (
{
closed = 1;
nodes = (
(45,536,o),
(-17,489,o),
(35,459,cs),
(97,424,o),
(251,603,o),
(174,684,cs),
(146,713,o),
(78,711,o),
(51,676,cs),
(6,617,o),
(47,581,o),
(46,555,cs)
);
},
{
closed = 1;
nodes = (
(249,530,o),
(187,483,o),
(239,453,cs),
(301,418,o),
(455,597,o),
(378,678,cs),
(350,707,o),
(282,705,o),
(255,670,cs),
(210,611,o),
(251,575,o),
(250,549,cs)
);
}
);
width = 413;
}
);
note = quotesingle;
unicode = 8221;
},
{
glyphname = quotedbl;
lastChange = "2024-02-24 17:37:49 +0000";
layers = (
{
layerId = m01;
shapes = (
{
closed = 1;
nodes = (
(-17,466,o),
(43,457,cs),
(123,445,o),
(202,629,o),
(171,674,cs),
(148,707,o),
(86,709,o),
(59,674,cs),
(14,615,o)
);
},
{
closed = 1;
nodes = (
(164,469,o),
(224,460,cs),
(304,448,o),
(383,632,o),
(352,677,cs),
(329,710,o),
(267,712,o),
(240,677,cs),
(195,618,o)
);
}
);
width = 359;
}
);
unicode = 34;
},
{
glyphname = at;
kernLeft = a;
kernRight = a;
lastChange = "2024-02-12 13:57:37 +0000";
layers = (
{
layerId = m01;
shapes = (
{
closed = 1;
nodes = (
(386,308,o),
(363,321,cs),
(337,336,o),
(309,321,o),
(292,291,cs),
(266,246,o),
(276,208,o),
(291,201,cs),
(316,189,o),
(344,215,o),
(367,252,cs),
(384,281,o)
);
},
{
closed = 1;
nodes = (
(459,159,o),
(538,196,o),
(567,266,cs),
(609,367,o),
(510,458,o),
(355,458,cs),
(215,458,o),
(127,353,o),
(113,269,cs),
(103,208,o),
(113,127,o),
(211,75,cs),
(303,26,o),
(423,49,o),
(450,60,cs),
(464,66,o),
(473,64,o),
(477,58,cs),
(481,52,o),
(479,39,o),
(467,30,cs),
(441,11,o),
(253,-74,o),
(126,17,cs),
(30,86,o),
(-10,204,o),
(27,321,cs),
(60,425,o),
(158,536,o),
(314,542,cs),
(550,551,o),
(679,459,o),
(655,281,cs),
(636,141,o),
(511,90,o),
(425,104,cs),
(404,107,o),
(355,141,o),
(355,187,c),
(329,148,o),
(298,115,o),
(238,115,cs),
(177,115,o),
(147,185,o),
(163,239,cs),
(182,306,o),
(255,404,o),
(341,404,cs),
(391,404,o),
(408,384,o),
(419,365,c),
(441,388,o),
(466,399,o),
(488,399,cs),
(510,399,o),
(514,363,o),
(500,347,cs),
(455,297,o),
(399,224,o),
(432,188,cs)
);
}
);
width = 660;
}
);
note = a;
unicode = 64;
},
{
glyphname = ampersand;
lastChange = "2024-02-12 14:03:07 +0000";
layers = (
{
layerId = m01;
shapes = (
{
closed = 1;
nodes = (
(487,581,o),
(419,634,o),
(317,616,cs),
(259,606,o),
(156,554,o),
(162,456,cs),
(165,407,o),
(205,352,o),
(227,342,c),
(137,329,o),
(14,288,o),
(7,173,cs),
(-2,34,o),
(127,-14,o),
(233,-14,cs),
(342,-14,o),
(417,66,o),
(445,78,c),
(460,63,o),
(478,53,o),
(516,63,cs),
(554,73,o),
(596,129,o),
(576,150,cs),
(547,180,o),
(475,210,o),
(451,236,cs),
(427,262,o),
(396,248,o),
(379,226,cs),
(363,204,o),
(356,178,o),
(382,160,c),
(326,119,o),
(185,89,o),
(174,186,cs),
(169,226,o),
(204,256,o),
(337,278,cs),
(385,286,o),
(418,298,o),
(428,329,cs),
(437,356,o),
(368,369,o),
(334,395,cs),
(295,426,o),
(284,465,o),
(331,483,cs),
(369,498,o),
(387,480,o),
(425,448,cs),
(479,402,o),
(489,395,o),
(537,395,cs),
(585,395,o),
(631,448,o),
(621,483,cs),
(614,507,o),
(561,486,o),
(520,538,cs)
);
}
);
width = 600;
}
);
unicode = 38;
},
{
glyphname = dollar;
kernLeft = s;
kernRight = s;
lastChange = "2024-02-12 14:02:36 +0000";
layers = (
{
layerId = m01;
shapes = (
{
closed = 1;
nodes = (
(108,342,o),
(317,290,o),
(258,215,cs),
(210,153,o),
(90,323,o),
(29,235,cs),
(-13,176,o),
(88,81,o),
(227,81,cs),
(366,81,o),
(439,129,o),
(460,202,cs),
(499,335,o),
(309,359,o),
(336,428,cs),
(366,501,o),
(496,369,o),
(528,420,cs),
(558,466,o),
(458,537,o),
(381,553,cs),
(335,563,o),
(194,568,o),
(162,483,cs)
);
},
{
closed = 1;
nodes = (
(381,657,o),
(330,620,o),
(305,550,c),
(409,483,l),
(436,539,o),
(489,638,o),
(425,651,c)
);
},
{
closed = 1;
nodes = (
(163,-47,o),
(210,55,o),
(238,110,c),
(122,153,l),
(81,90,o),
(83,28,o),
(114,-5,c)
);
}
);
width = 553;
}
);
note = s;
unicode = 36;
},
{
glyphname = percent;
kernLeft = o;
kernRight = o;
lastChange = "2024-06-01 14:02:45 +0000";
layers = (
{
layerId = m01;
shapes = (
{
closed = 1;
nodes = (
(172,16,o),
(252,50,o),
(245,80,cs),
(238,110,o),
(225,111,o),
(237,131,cs),
(249,151,o),
(483,404,o),
(525,431,cs),
(576,464,o),
(575,526,o),
(558,544,cs),
(544,558,o),
(512,583,o),
(476,582,cs),
(440,583,o),
(384,559,o),
(380,523,cs),
(376,487,o),
(391,491,o),
(380,465,cs),
(375,454,o),
(70,202,o),
(68,142,cs),
(66,82,o),
(94,42,o),
(133,29,cs)
);
},
{
closed = 1;
nodes = (
(145,308,o),
(177,315,o),
(247,392,cs),
(309,459,o),
(284,529,o),
(258,552,cs),
(237,568,o),
(203,585,o),
(161,586,cs),
(101,587,o),
(100,553,o),
(87,538,c),
(67,513,o),
(32,507,o),
(17,435,cs),
(8,399,o),
(26,339,o),
(84,324,cs)
);
},
{
closed = 1;
nodes = (
(78,405,o),
(80,444,o),
(116,481,cs),
(138,504,o),
(166,511,o),
(190,491,cs),
(209,475,o),
(198,449,o),
(176,424,cs),
(147,394,o),
(112,379,o),
(92,394,cs)
);
},
{
closed = 1;
nodes = (
(457,16,o),
(489,23,o),
(559,100,cs),
(621,167,o),
(596,237,o),
(569,259,cs),
(549,276,o),
(515,293,o),
(473,294,cs),
(413,295,o),
(412,261,o),
(399,246,c),
(379,221,o),
(344,215,o),
(328,143,cs),
(320,107,o),
(338,47,o),
(396,32,cs)
);
},
{
closed = 1;
nodes = (
(390,113,o),
(392,152,o),
(428,189,cs),
(450,212,o),
(478,219,o),
(502,199,cs),
(521,183,o),
(510,157,o),
(487,133,cs),
(459,102,o),
(424,87,o),
(404,102,cs)
);
}
);
width = 634;
}
);
note = o;
unicode = 37;
},
